# 3ds Max Wavefront OBJ Exporter v0.97b - (c)2007 guruware
# File Created: 27.01.2019 00:22:09

#
# object Box017
#

v  -0.2000 0.3607 0.1500
v  -0.2000 0.3607 -0.1500
v  0.2000 0.3607 -0.1500
v  0.2000 0.3607 0.1500
v  -0.2350 0.6457 0.1850
v  0.2350 0.6457 0.1850
v  0.2350 0.6457 -0.1850
v  -0.2350 0.6457 -0.1850
v  -0.1750 0.3857 0.1350
v  0.1750 0.3857 0.1350
v  0.1750 0.5857 0.1350
v  -0.1750 0.5857 0.1350
v  0.2000 0.6107 -0.1500
v  0.2000 0.6107 0.1500
v  -0.2000 0.6107 -0.1500
v  -0.2000 0.6107 0.1500
v  0.1750 0.3857 0.1500
v  -0.1750 0.3857 0.1500
v  0.1750 0.5857 0.1500
v  -0.1750 0.5857 0.1500
v  0.2350 0.6107 0.1850
v  -0.2350 0.6107 0.1850
v  0.2350 0.6107 -0.1850
v  -0.2350 0.6107 -0.1850
v  -0.0280 0.4897 0.1859
v  0.0000 0.4617 0.1859
v  0.0280 0.4897 0.1859
v  -0.0000 0.5178 0.1859
v  0.0000 0.4617 0.1333
v  0.0000 0.4552 0.1596
v  -0.0345 0.4897 0.1596
v  -0.0280 0.4897 0.1333
v  0.0280 0.4897 0.1333
v  0.0345 0.4897 0.1596
v  -0.0000 0.5178 0.1333
v  -0.0000 0.5243 0.1596
v  0.1798 0.0000 0.1699
v  0.1798 0.0000 0.1299
v  0.2198 0.0000 0.1299
v  0.2198 0.0000 0.1699
v  0.1798 0.6371 0.1699
v  0.2198 0.6371 0.1699
v  0.2198 0.6371 0.1299
v  0.1798 0.6371 0.1299
v  0.1798 0.0000 -0.1305
v  0.1798 0.0000 -0.1705
v  0.2198 0.0000 -0.1705
v  0.2198 0.0000 -0.1305
v  0.1798 0.6371 -0.1305
v  0.2198 0.6371 -0.1305
v  0.2198 0.6371 -0.1705
v  0.1798 0.6371 -0.1705
v  -0.2203 0.0000 -0.1305
v  -0.2203 0.0000 -0.1705
v  -0.1803 0.0000 -0.1705
v  -0.1803 0.0000 -0.1305
v  -0.2203 0.6371 -0.1305
v  -0.1803 0.6371 -0.1305
v  -0.1803 0.6371 -0.1705
v  -0.2203 0.6371 -0.1705
v  -0.2203 0.0000 0.1699
v  -0.2203 0.0000 0.1299
v  -0.1803 0.0000 0.1299
v  -0.1803 0.0000 0.1699
v  -0.2203 0.6371 0.1699
v  -0.1803 0.6371 0.1699
v  -0.1803 0.6371 0.1299
v  -0.2203 0.6371 0.1299
# 68 vertices

vn 0.0000 -1.0000 -0.0000
vn 0.0000 1.0000 -0.0000
vn 0.0000 0.0000 1.0000
vn 1.0000 0.0000 -0.0000
vn 0.0000 0.0000 -1.0000
vn -1.0000 0.0000 -0.0000
vn -0.6965 -0.6965 -0.1726
vn -0.7071 -0.7071 -0.0000
vn 0.6965 -0.6965 -0.1726
vn 0.7071 -0.7071 -0.0000
vn 0.7071 -0.7071 0.0000
vn 0.6965 0.6965 -0.1726
vn 0.7071 0.7071 0.0000
vn -0.6965 0.6965 -0.1726
vn -0.7071 0.7071 -0.0000
vn -0.6965 -0.6965 0.1726
vn 0.6965 -0.6965 0.1726
vn 0.6965 0.6965 0.1726
vn -0.6965 0.6965 0.1726
# 19 vertex normals

vt 1.0000 0.0000 0.0000
vt 1.0000 1.0000 0.0000
vt 0.0000 1.0000 0.0000
vt 0.0000 0.0000 0.0000
vt 1.0000 0.5000 0.0000
vt 0.0000 0.5000 0.0000
# 6 texture coords

g Box017
s 2
f 1/1/1 2/2/1 3/3/1 4/4/1 
s 4
f 5/4/2 6/1/2 7/2/2 8/3/2 
s 8
f 9/4/3 10/1/3 11/2/3 12/3/3 
s 16
f 4/4/4 3/1/4 13/2/4 14/3/4 
s 32
f 3/4/5 2/1/5 15/2/5 13/3/5 
s 64
f 2/4/6 1/1/6 16/2/6 15/3/6 
s off
f 1/4/3 4/1/3 17/1/3 18/4/3 
f 4/1/3 14/2/3 19/2/3 17/1/3 
f 14/2/3 16/3/3 20/3/3 19/2/3 
f 16/3/3 1/4/3 18/4/3 20/3/3 
f 18/4/2 17/1/2 10/1/2 9/4/2 
f 17/1/6 19/2/6 11/2/6 10/1/6 
f 19/2/1 20/3/1 12/3/1 11/2/1 
f 20/3/4 18/4/4 9/4/4 12/3/4 
f 16/4/1 14/1/1 21/1/1 22/4/1 
f 14/1/1 13/2/1 23/2/1 21/1/1 
f 13/2/1 15/3/1 24/3/1 23/2/1 
f 15/3/1 16/4/1 22/4/1 24/3/1 
f 22/4/3 21/1/3 6/1/3 5/4/3 
f 21/1/4 23/2/4 7/2/4 6/1/4 
f 23/2/5 24/3/5 8/3/5 7/2/5 
f 24/3/6 22/4/6 5/4/6 8/3/6 
s 4
f 25/4/3 26/1/3 27/2/3 28/3/3 
s 8
f 29/1/7 30/5/8 31/6/8 32/4/7 
s 16
f 33/1/9 34/5/10 30/6/11 29/4/9 
s 32
f 35/1/12 36/5/13 34/6/13 33/4/12 
s 64
f 32/1/14 31/5/15 36/6/15 35/4/14 
s 8
f 26/2/16 25/3/16 31/6/8 30/5/8 
s 16
f 27/2/17 26/3/17 30/6/11 34/5/10 
s 32
f 28/2/18 27/3/18 34/6/13 36/5/13 
s 64
f 25/2/19 28/3/19 36/6/15 31/5/15 
s 2
f 37/1/1 38/2/1 39/3/1 40/4/1 
s 4
f 41/4/2 42/1/2 43/2/2 44/3/2 
s 8
f 37/4/3 40/1/3 42/2/3 41/3/3 
s 16
f 40/4/4 39/1/4 43/2/4 42/3/4 
s 32
f 39/4/5 38/1/5 44/2/5 43/3/5 
s 64
f 38/4/6 37/1/6 41/2/6 44/3/6 
s 2
f 45/1/1 46/2/1 47/3/1 48/4/1 
s 4
f 49/4/2 50/1/2 51/2/2 52/3/2 
s 8
f 45/4/3 48/1/3 50/2/3 49/3/3 
s 16
f 48/4/4 47/1/4 51/2/4 50/3/4 
s 32
f 47/4/5 46/1/5 52/2/5 51/3/5 
s 64
f 46/4/6 45/1/6 49/2/6 52/3/6 
s 2
f 53/1/1 54/2/1 55/3/1 56/4/1 
s 4
f 57/4/2 58/1/2 59/2/2 60/3/2 
s 8
f 53/4/3 56/1/3 58/2/3 57/3/3 
s 16
f 56/4/4 55/1/4 59/2/4 58/3/4 
s 32
f 55/4/5 54/1/5 60/2/5 59/3/5 
s 64
f 54/4/6 53/1/6 57/2/6 60/3/6 
s 2
f 61/1/1 62/2/1 63/3/1 64/4/1 
s 4
f 65/4/2 66/1/2 67/2/2 68/3/2 
s 8
f 61/4/3 64/1/3 66/2/3 65/3/3 
s 16
f 64/4/4 63/1/4 67/2/4 66/3/4 
s 32
f 63/4/5 62/1/5 68/2/5 67/3/5 
s 64
f 62/4/6 61/1/6 65/2/6 68/3/6 
# 55 polygons

