# 3ds Max Wavefront OBJ Exporter v0.97b - (c)2007 guruware
# File Created: 26.01.2019 06:32:31

#
# object Box006
#

v  -0.0200 0.0035 0.0790
v  -0.0200 0.0050 -0.0725
v  0.0200 0.0050 -0.0725
v  0.0200 0.0035 0.0790
v  -0.0200 0.2465 0.0790
v  0.0200 0.2465 0.0790
v  0.0200 0.2450 -0.0725
v  -0.0200 0.2450 -0.0725
v  0.0300 0.0000 0.0825
v  0.0300 0.0000 -0.0825
v  0.0300 0.2500 -0.0825
v  0.0300 0.2500 0.0825
v  -0.0300 0.0000 -0.0825
v  -0.0300 0.2500 -0.0825
v  -0.0300 0.0000 0.0825
v  -0.0300 0.2500 0.0825
v  -0.0200 0.0000 -0.0725
v  -0.0200 0.0000 0.0825
v  0.0200 0.0000 -0.0725
v  0.0200 0.0000 0.0825
v  0.0200 0.2500 0.0825
v  0.0200 0.2500 -0.0725
v  -0.0200 0.2500 -0.0725
v  -0.0200 0.2500 0.0825
# 24 vertices

vn 0.0000 -1.0000 -0.0097
vn 0.0000 1.0000 -0.0097
vn 0.0000 0.0000 1.0000
vn 1.0000 0.0000 -0.0000
vn 0.0000 0.0000 -1.0000
vn -1.0000 0.0000 -0.0000
vn 0.0000 -1.0000 -0.0000
vn 0.0000 1.0000 -0.0000
# 8 vertex normals

vt 0.8280 0.2909 0.0000
vt 0.5337 0.2909 0.0000
vt 0.5337 0.2132 0.0000
vt 0.8280 0.2132 0.0000
vt 0.5337 0.2086 0.0000
vt 0.5337 0.1309 0.0000
vt 0.8280 0.1309 0.0000
vt 0.8280 0.2086 0.0000
vt 0.5092 0.5566 0.0000
vt 0.5092 0.4789 0.0000
vt 0.9813 0.4789 0.0000
vt 0.9813 0.5566 0.0000
vt 0.0050 0.6646 0.0000
vt 0.0050 0.3440 0.0000
vt 0.4908 0.3440 0.0000
vt 0.4908 0.6646 0.0000
vt 0.5092 0.4606 0.0000
vt 0.5092 0.3440 0.0000
vt 0.9950 0.3440 0.0000
vt 0.9950 0.4606 0.0000
vt 0.0050 0.3257 0.0000
vt 0.0050 0.0050 0.0000
vt 0.4908 0.0050 0.0000
vt 0.4908 0.3257 0.0000
vt 0.3453 0.9719 0.0000
vt 0.0246 0.9719 0.0000
vt 0.0441 0.9525 0.0000
vt 0.3453 0.9525 0.0000
vt 0.0246 0.8553 0.0000
vt 0.0441 0.8748 0.0000
vt 0.3453 0.8553 0.0000
vt 0.3453 0.8748 0.0000
vt 0.5092 0.6127 0.0000
vt 0.9950 0.6127 0.0000
vt 0.9950 0.6321 0.0000
vt 0.5092 0.6321 0.0000
vt 0.0246 0.7341 0.0000
vt 0.3453 0.7341 0.0000
vt 0.3258 0.7536 0.0000
vt 0.0246 0.7536 0.0000
vt 0.3453 0.8508 0.0000
vt 0.3258 0.8313 0.0000
vt 0.0246 0.8508 0.0000
vt 0.0246 0.8313 0.0000
vt 0.9950 0.5944 0.0000
vt 0.5092 0.5944 0.0000
vt 0.5092 0.5749 0.0000
vt 0.9950 0.5749 0.0000
vt 0.0050 0.9842 0.0000
vt 0.0050 0.6829 0.0000
vt 0.0147 0.6829 0.0000
vt 0.0119 0.9773 0.0000
vt 0.0929 0.8156 0.0000
vt 0.1707 0.8156 0.0000
vt 0.1707 0.8253 0.0000
vt 0.0929 0.8253 0.0000
vt 0.5092 0.3062 0.0000
vt 0.5092 0.0050 0.0000
vt 0.5160 0.0119 0.0000
vt 0.5189 0.3062 0.0000
vt 0.9950 0.0050 0.0000
vt 0.9881 0.0119 0.0000
vt 0.9950 0.3062 0.0000
vt 0.9853 0.3062 0.0000
vt 0.1707 0.8110 0.0000
vt 0.0929 0.8110 0.0000
vt 0.0929 0.8013 0.0000
vt 0.1707 0.8013 0.0000
vt 0.4908 0.6829 0.0000
vt 0.4908 0.9842 0.0000
vt 0.4840 0.9773 0.0000
vt 0.4811 0.6829 0.0000
# 72 texture coords

g Box006
s 2
f 1/1/1 2/2/1 3/3/1 4/4/1 
s 4
f 5/5/2 6/6/2 7/7/2 8/8/2 
s 8
f 1/9/3 4/10/3 6/11/3 5/12/3 
s 16
f 9/13/4 10/14/4 11/15/4 12/16/4 
s 32
f 10/17/5 13/18/5 14/19/5 11/20/5 
s 64
f 13/21/6 15/22/6 16/23/6 14/24/6 
s off
f 15/25/7 13/26/7 17/27/7 18/28/7 
f 13/26/7 10/29/7 19/30/7 17/27/7 
f 10/29/7 9/31/7 20/32/7 19/30/7 
f 9/33/3 12/34/3 21/35/3 20/36/3 
f 12/37/8 11/38/8 22/39/8 21/40/8 
f 11/38/8 14/41/8 23/42/8 22/39/8 
f 14/41/8 16/43/8 24/44/8 23/42/8 
f 16/45/3 15/46/3 18/47/3 24/48/3 
f 18/49/4 17/50/4 2/51/4 1/52/4 
f 17/53/3 19/54/3 3/55/3 2/56/3 
f 19/57/6 20/58/6 4/59/6 3/60/6 
f 20/58/6 21/61/6 6/62/6 4/59/6 
f 21/61/6 22/63/6 7/64/6 6/62/6 
f 22/65/3 23/66/3 8/67/3 7/68/3 
f 23/69/4 24/70/4 5/71/4 8/72/4 
f 24/70/4 18/49/4 1/52/4 5/71/4 
# 22 polygons

