# This file uses centimeters as units for non-parametric coordinates.

v -0.500000 -0.077188 0.500000
v 0.500000 -0.077188 0.500000
v -0.417959 0.077188 0.417959
v 0.417959 0.077188 0.417959
v -0.417959 0.077188 -0.417959
v 0.417959 0.077188 -0.417959
v -0.500000 -0.077188 -0.500000
v 0.500000 -0.077188 -0.500000
v -0.987674 0.166307 0.987674
v 0.987674 0.166307 0.987674
v 0.987674 0.302917 0.987674
v -0.987674 0.302917 0.987674
v -0.987674 0.302917 -0.987674
v 0.987674 0.302917 -0.987674
v 0.987674 0.166307 -0.987674
v -0.987674 0.166307 -0.987674
v -0.417959 1.527887 0.417959
v 0.417959 1.527887 0.417959
v 0.417959 1.527887 -0.417959
v -0.417959 1.527887 -0.417959
v -0.247045 1.483527 0.247045
v 0.247045 1.483527 0.247045
v 0.247045 1.483527 -0.247045
v -0.247045 1.483527 -0.247045
v -0.088305 1.463150 0.088305
v 0.088305 1.463150 0.088305
v 0.088305 1.463150 -0.088305
v -0.088305 1.463150 -0.088305
v -0.169057 1.891123 0.042732
v 0.007553 1.891123 0.042732
v 0.007553 1.891123 -0.133879
v -0.169057 1.891123 -0.133879
v -1.140615 0.166307 1.140615
v 1.140615 0.166307 1.140615
v 1.140615 0.302917 1.140615
v -1.140615 0.302917 1.140615
v -1.140615 0.302917 -1.140615
v 1.140615 0.302917 -1.140615
v 1.140615 0.166307 -1.140615
v -1.140615 0.166307 -1.140615
vt 0.021356 0.025789
vt 0.519531 0.025789
vt 0.532527 0.530310
vt 0.980887 0.530310
vt 0.980887 0.978670
vt 0.532527 0.978670
vt 0.519531 0.025789
vt 0.021356 0.025789
vt 0.021356 0.523964
vt 0.519531 0.523964
vt 0.519531 0.523964
vt 0.021356 0.523964
vt 0.161253 0.384067
vt 0.379633 0.384067
vt 0.379633 0.165687
vt 0.161253 0.165687
vt 0.486132 0.059188
vt 0.054755 0.059188
vt 0.361717 0.183603
vt 0.179169 0.183603
vt 0.054755 0.059188
vt 0.486132 0.059188
vt 0.179169 0.366151
vt 0.361717 0.366151
vt 0.486132 0.490565
vt 0.054755 0.490565
vt 0.980887 0.530310
vt 0.980887 0.978670
vt 0.532527 0.530310
vt 0.532527 0.978670
vt 0.889214 0.964960
vt 0.624200 0.964960
vt 0.889214 0.964960
vt 0.624200 0.964960
vt 0.587037 0.446260
vt 0.839659 0.446260
vt 0.839659 0.446260
vt 0.587037 0.446260
vt 0.702544 0.078130
vt 0.955166 0.078130
vt 0.955166 0.078130
vt 0.702544 0.078130
vt 0.054755 0.490565
vt 0.486132 0.490565
vt 0.804071 0.958662
vt 0.709343 0.958662
vt 0.804071 0.958662
vt 0.709343 0.958662
vn 0.000000 0.000000 1.000000
vn 0.000000 0.000000 1.000000
vn 0.000000 0.000000 1.000000
vn 0.000000 0.000000 1.000000
vn 0.000000 1.000000 0.000000
vn 0.000000 1.000000 0.000000
vn 0.000000 1.000000 0.000000
vn 0.000000 1.000000 0.000000
vn 0.000000 0.000000 -1.000000
vn 0.000000 0.000000 -1.000000
vn 0.000000 0.000000 -1.000000
vn 0.000000 0.000000 -1.000000
vn 0.000000 -1.000000 0.000000
vn 0.000000 -1.000000 0.000000
vn 0.000000 -1.000000 0.000000
vn 0.000000 -1.000000 0.000000
vn 1.000000 0.000000 0.000000
vn 1.000000 0.000000 0.000000
vn 1.000000 0.000000 0.000000
vn 1.000000 0.000000 0.000000
vn -1.000000 0.000000 0.000000
vn -1.000000 0.000000 0.000000
vn -1.000000 0.000000 0.000000
vn -1.000000 0.000000 0.000000
vn 0.000000 -0.894679 0.446711
vn 0.000000 -0.894679 0.446711
vn 0.000000 -0.894679 0.446711
vn 0.000000 -0.894679 0.446711
vn 0.000000 0.929685 -0.368356
vn 0.000000 0.929685 -0.368356
vn 0.000000 0.929685 -0.368356
vn 0.000000 0.929685 -0.368356
vn 0.000000 0.929685 0.368356
vn 0.000000 0.929685 0.368356
vn 0.000000 0.929685 0.368356
vn 0.000000 0.929685 0.368356
vn 0.000000 -0.894679 -0.446711
vn 0.000000 -0.894679 -0.446711
vn 0.000000 -0.894679 -0.446711
vn 0.000000 -0.894679 -0.446711
vn 0.446711 -0.894679 0.000000
vn 0.446711 -0.894679 0.000000
vn 0.446711 -0.894679 0.000000
vn 0.446711 -0.894679 0.000000
vn -0.368356 0.929685 0.000000
vn -0.368356 0.929685 0.000000
vn -0.368356 0.929685 0.000000
vn -0.368356 0.929685 0.000000
vn -0.446711 -0.894679 0.000000
vn -0.446711 -0.894679 0.000000
vn -0.446711 -0.894679 0.000000
vn -0.446711 -0.894679 0.000000
vn 0.368356 0.929685 0.000000
vn 0.368356 0.929685 0.000000
vn 0.368356 0.929685 0.000000
vn 0.368356 0.929685 0.000000
vn 0.000000 0.000000 1.000000
vn 0.000000 0.000000 1.000000
vn 0.000000 0.000000 1.000000
vn 0.000000 0.000000 1.000000
vn 1.000000 0.000000 0.000000
vn 1.000000 0.000000 0.000000
vn 1.000000 0.000000 0.000000
vn 1.000000 0.000000 0.000000
vn 0.000000 0.000000 -1.000000
vn 0.000000 0.000000 -1.000000
vn 0.000000 0.000000 -1.000000
vn 0.000000 0.000000 -1.000000
vn -1.000000 0.000000 0.000000
vn -1.000000 0.000000 0.000000
vn -1.000000 0.000000 0.000000
vn -1.000000 0.000000 0.000000
vn 0.127641 0.983573 -0.127642
vn -0.127641 0.983573 -0.127642
vn -0.119097 0.985714 -0.119097
vn 0.119097 0.985714 -0.119097
vn -0.127641 0.983573 0.127642
vn -0.119097 0.985714 0.119097
vn 0.127641 0.983573 0.127642
vn 0.119097 0.985714 0.119097
vn -0.063921 0.995906 -0.063922
vn 0.063921 0.995906 -0.063922
vn -0.063921 0.995906 0.063922
vn 0.063921 0.995906 0.063922
vn 0.000000 0.105888 0.994378
vn 0.000000 0.105888 0.994378
vn 0.000000 0.105888 0.994378
vn 0.000000 0.105888 0.994378
vn 0.982661 0.185413 0.000000
vn 0.982661 0.185413 0.000000
vn 0.982661 0.185413 0.000000
vn 0.982661 0.185413 0.000000
vn 0.000000 -0.105888 -0.994378
vn 0.000000 -0.105888 -0.994378
vn 0.000000 -0.105888 -0.994378
vn 0.000000 -0.105888 -0.994378
vn -0.982661 -0.185413 0.000000
vn -0.982661 -0.185413 0.000000
vn -0.982661 -0.185413 0.000000
vn -0.982661 -0.185413 0.000000
vn 0.000000 -1.000000 0.000000
vn 0.000000 -1.000000 0.000000
vn 0.000000 -1.000000 0.000000
vn 0.000000 -1.000000 0.000000
vn 0.000000 1.000000 0.000000
vn 0.000000 1.000000 0.000000
vn 0.000000 1.000000 0.000000
vn 0.000000 1.000000 0.000000
vn 0.000000 1.000000 -0.000000
vn 0.000000 1.000000 -0.000000
vn 0.000000 1.000000 -0.000000
vn 0.000000 1.000000 -0.000000
vn 0.000000 -1.000000 -0.000000
vn 0.000000 -1.000000 -0.000000
vn 0.000000 -1.000000 -0.000000
vn 0.000000 -1.000000 -0.000000
vn 0.000000 -1.000000 0.000000
vn 0.000000 -1.000000 0.000000
vn 0.000000 -1.000000 0.000000
vn 0.000000 -1.000000 0.000000
vn 0.000000 1.000000 0.000000
vn 0.000000 1.000000 0.000000
vn 0.000000 1.000000 0.000000
vn 0.000000 1.000000 0.000000
vn 0.000000 -1.000000 0.000000
vn 0.000000 -1.000000 0.000000
vn 0.000000 -1.000000 0.000000
vn 0.000000 -1.000000 0.000000
vn 0.000000 1.000000 0.000000
vn 0.000000 1.000000 0.000000
vn 0.000000 1.000000 0.000000
vn 0.000000 1.000000 0.000000
s off
f 33/1/1 34/2/2 35/7/3 36/8/4
f 29/35/5 30/36/6 31/37/7 32/38/8
f 37/9/9 38/10/10 39/11/11 40/12/12
f 7/13/13 8/14/14 2/15/15 1/16/16
f 34/2/17 39/11/18 38/10/19 35/7/20
f 40/12/21 33/1/22 36/8/23 37/9/24
f 1/16/25 2/15/26 10/17/27 9/18/28
f 4/19/29 3/20/30 12/21/31 11/22/32
f 5/23/33 6/24/34 14/25/35 13/26/36
f 8/14/37 7/13/38 16/43/39 15/44/40
f 2/15/41 8/14/42 15/44/43 10/17/44
f 6/24/45 4/19/46 11/22/47 14/25/48
f 7/13/49 1/16/50 9/18/51 16/43/52
f 3/20/53 5/23/54 13/26/55 12/21/56
f 3/3/57 4/4/58 18/5/59 17/6/60
f 4/4/61 6/27/62 19/28/63 18/5/64
f 6/27/65 5/29/66 20/30/67 19/28/68
f 5/29/69 3/3/70 17/6/71 20/30/72
s 1
f 17/6/73 18/5/74 22/31/75 21/32/76
f 18/5/74 19/28/77 23/33/78 22/31/75
f 19/28/77 20/30/79 24/34/80 23/33/78
f 20/30/79 17/6/73 21/32/76 24/34/80
f 21/32/76 22/31/75 26/45/81 25/46/82
f 22/31/75 23/33/78 27/47/83 26/45/81
f 23/33/78 24/34/80 28/48/84 27/47/83
f 24/34/80 21/32/76 25/46/82 28/48/84
s off
f 25/39/85 26/40/86 30/36/87 29/35/88
f 26/40/89 27/41/90 31/37/91 30/36/92
f 27/41/93 28/42/94 32/38/95 31/37/96
f 28/42/97 25/39/98 29/35/99 32/38/100
f 9/18/101 10/17/102 34/2/103 33/1/104
f 11/22/105 12/21/106 36/8/107 35/7/108
f 13/26/109 14/25/110 38/10/111 37/9/112
f 15/44/113 16/43/114 40/12/115 39/11/116
f 10/17/117 15/44/118 39/11/119 34/2/120
f 14/25/121 11/22/122 35/7/123 38/10/124
f 16/43/125 9/18/126 33/1/127 40/12/128
f 12/21/129 13/26/130 37/9/131 36/8/132
