# 3ds Max Wavefront OBJ Exporter v0.97b - (c)2007 guruware
# File Created: 26.01.2019 22:40:46

#
# object Box014
#

v  -0.0615 -0.4704 -0.1646
v  -0.0615 -0.3156 -0.3858
v  -0.0292 -0.3031 -0.4035
v  0.0615 -0.3156 -0.3858
v  0.0292 -0.3031 -0.4035
v  0.0615 -0.4704 -0.1646
v  0.0292 -0.4829 -0.1469
v  -0.0292 -0.4829 -0.1469
v  -0.0292 0.3031 0.4035
v  0.0292 0.3031 0.4035
v  0.0615 0.3156 0.3858
v  0.0292 0.4829 0.1469
v  0.0615 0.4704 0.1646
v  -0.0292 0.4829 0.1469
v  -0.0615 0.4704 0.1646
v  -0.0615 0.3156 0.3858
v  -0.1250 -0.2272 0.0240
v  0.1250 -0.2272 0.0240
v  0.1250 0.0551 0.2217
v  -0.1250 0.0551 0.2217
v  0.1500 -0.2129 0.0035
v  0.1500 -0.0695 -0.2013
v  0.1500 0.2129 -0.0035
v  0.1500 0.0695 0.2013
v  0.1250 -0.0551 -0.2217
v  -0.1250 -0.0551 -0.2217
v  -0.1250 0.2272 -0.0240
v  0.1250 0.2272 -0.0240
v  -0.1500 -0.0695 -0.2013
v  -0.1500 -0.2129 0.0035
v  -0.1500 0.0695 0.2013
v  -0.1500 0.2129 -0.0035
v  -0.0412 -0.2149 -0.2135
v  -0.0412 -0.2741 -0.1290
v  0.0196 -0.2025 -0.2312
v  -0.0196 -0.2025 -0.2312
v  0.0412 -0.2741 -0.1290
v  0.0412 -0.2149 -0.2135
v  -0.0196 -0.2865 -0.1112
v  0.0196 -0.2865 -0.1112
v  0.0196 0.2025 0.2312
v  -0.0196 0.2025 0.2312
v  0.0412 0.2741 0.1290
v  0.0412 0.2149 0.2135
v  -0.0196 0.2865 0.1112
v  0.0196 0.2865 0.1112
v  -0.0412 0.2149 0.2135
v  -0.0412 0.2741 0.1290
# 48 vertices

vn 0.0000 -0.8192 -0.5736
vn 0.0000 0.8192 0.5736
vn 0.0000 -0.5736 0.8192
vn 1.0000 0.0000 -0.0000
vn 0.0000 0.5736 -0.8192
vn -1.0000 0.0000 -0.0000
vn -0.7104 -0.5765 -0.4037
vn 0.0000 0.0006 -1.0000
vn 0.7104 -0.5765 -0.4037
vn 0.0000 -0.9395 0.3426
vn 0.0000 -0.0006 1.0000
vn 0.7104 0.5765 0.4037
vn 0.0000 0.9395 -0.3426
vn -0.7104 0.5765 0.4037
vn -0.9919 0.1042 0.0730
vn 0.0000 0.8900 -0.4560
vn 0.9919 0.1042 0.0730
vn 0.0000 -0.1241 0.9923
vn 0.0000 -0.8900 0.4560
vn 0.9919 -0.1042 -0.0730
vn 0.0000 0.1241 -0.9923
vn -0.9919 -0.1042 -0.0730
vn 0.7071 -0.4056 0.5792
vn -0.7071 -0.4056 0.5792
vn 0.7071 0.4056 -0.5792
vn -0.7071 0.4056 -0.5792
vn -0.4587 -0.8865 -0.0608
vn -0.4587 -0.3604 -0.8123
vn 0.4587 -0.3604 -0.8123
vn 0.4587 -0.8865 -0.0608
vn -0.4587 0.3604 0.8123
vn 0.4587 0.3604 0.8123
vn 0.4587 0.8865 0.0608
vn -0.4587 0.8865 0.0608
vn -0.5663 -0.0551 0.8224
vn -0.5663 0.7539 -0.3330
vn 0.5663 0.7539 -0.3330
vn 0.5663 -0.0551 0.8224
vn -0.5663 -0.7539 0.3330
vn 0.5663 -0.7539 0.3330
vn 0.5663 0.0551 -0.8224
vn -0.5663 0.0551 -0.8224
# 42 vertex normals

vt 1.0000 0.0691 0.0000
vt 1.0000 0.9309 0.0000
vt 0.7376 1.0000 0.0000
vt 0.0000 0.9309 0.0000
vt 0.2624 1.0000 0.0000
vt 0.0000 0.0691 0.0000
vt 0.2624 0.0000 0.0000
vt 0.7376 0.0000 0.0000
vt 0.0833 0.0000 0.0000
vt 0.9167 0.0000 0.0000
vt 0.9167 1.0000 0.0000
vt 0.0833 1.0000 0.0000
vt 1.0000 0.0833 0.0000
vt 1.0000 0.9167 0.0000
vt 1.0000 0.8522 0.0000
vt 1.0000 0.1478 0.0000
vt 0.0000 0.9167 0.0000
vt 0.0000 0.0833 0.0000
vt 0.0000 0.1478 0.0000
vt 0.0000 0.8522 0.0000
vt -0.0345 -0.0000 0.0000
vt -0.0345 1.0000 0.0000
vt 1.0345 1.0000 0.0000
vt 1.0345 -0.0000 0.0000
# 24 texture coords

g Box014
s off
f 1/1/1 2/2/1 3/3/1 4/4/1 
f 3/3/1 5/5/1 4/4/1 
f 4/4/1 6/6/1 7/7/1 1/1/1 
f 8/8/1 1/1/1 7/7/1 
f 9/7/2 10/8/2 11/1/2 12/3/2 
f 11/1/2 13/2/2 12/3/2 
f 12/3/2 14/5/2 15/4/2 9/7/2 
f 16/6/2 9/7/2 15/4/2 
f 17/9/3 18/10/3 19/11/3 20/12/3 
f 21/9/4 22/10/4 23/11/4 24/12/4 
f 25/9/5 26/10/5 27/11/5 28/12/5 
f 29/9/6 30/10/6 31/11/6 32/12/6 
f 30/13/7 29/14/7 33/15/7 34/16/7 
f 26/11/8 25/12/8 35/5/8 36/3/8 
f 22/17/9 21/18/9 37/19/9 38/20/9 
f 18/9/10 17/10/10 39/8/10 40/7/10 
f 20/9/11 19/10/11 41/8/11 42/7/11 
f 24/13/12 23/14/12 43/15/12 44/16/12 
f 28/11/13 27/12/13 45/5/13 46/3/13 
f 32/17/14 31/18/14 47/19/14 48/20/14 
f 34/16/15 33/15/15 2/2/15 1/1/15 
f 36/3/16 35/5/16 5/5/16 3/3/16 
f 38/20/17 37/19/17 6/6/17 4/4/17 
f 40/7/18 39/8/18 8/8/18 7/7/18 
f 42/7/19 41/8/19 10/8/19 9/7/19 
f 44/16/20 43/15/20 13/2/20 11/1/20 
f 46/3/21 45/5/21 14/5/21 12/3/21 
f 48/20/22 47/19/22 16/6/22 15/4/22 
f 18/21/23 21/9/23 24/12/23 19/22/23 
f 20/23/24 31/11/24 30/10/24 17/24/24 
f 22/21/25 25/9/25 28/12/25 23/22/25 
f 26/21/26 29/9/26 32/12/26 27/22/26 
f 17/10/27 30/13/27 34/16/27 39/8/27 
f 29/14/28 26/11/28 36/3/28 33/15/28 
f 25/12/29 22/17/29 38/20/29 35/5/29 
f 21/18/30 18/9/30 40/7/30 37/19/30 
f 31/18/31 20/9/31 42/7/31 47/19/31 
f 19/10/32 24/13/32 44/16/32 41/8/32 
f 23/14/33 28/11/33 46/3/33 43/15/33 
f 27/12/34 32/17/34 48/20/34 45/5/34 
f 39/8/35 34/16/35 1/1/35 8/8/35 
f 33/15/36 36/3/36 3/3/36 2/2/36 
f 35/5/37 38/20/37 4/4/37 5/5/37 
f 37/19/38 40/7/38 7/7/38 6/6/38 
f 47/19/39 42/7/39 9/7/39 16/6/39 
f 41/8/40 44/16/40 11/1/40 10/8/40 
f 43/15/41 46/3/41 12/3/41 13/2/41 
f 45/5/42 48/20/42 15/4/42 14/5/42 
# 44 polygons - 4 triangles

