# 3ds Max Wavefront OBJ Exporter v0.97b - (c)2007 guruware
# File Created: 26.01.2019 10:54:57

#
# object Box011
#

v  -0.0375 0.0000 0.0375
v  -0.0375 0.0000 -0.0375
v  0.0375 0.0000 -0.0375
v  0.0375 0.0000 0.0375
v  0.0546 0.0250 0.0546
v  -0.0546 0.0250 0.0546
v  0.0546 0.0250 -0.0546
v  -0.0546 0.0250 -0.0546
v  0.0820 0.0413 0.0820
v  -0.0820 0.0413 0.0820
v  0.0820 0.0413 -0.0820
v  -0.0820 0.0413 -0.0820
v  0.1137 0.0540 0.1137
v  -0.1137 0.0540 0.1137
v  0.1137 0.0540 -0.1137
v  -0.1137 0.0540 -0.1137
v  0.0338 0.0085 -0.0338
v  -0.0338 0.0085 -0.0338
v  -0.0338 0.0085 0.0338
v  0.0338 0.0085 0.0338
v  0.0511 0.0337 0.0511
v  -0.0511 0.0337 0.0511
v  0.0511 0.0337 -0.0511
v  -0.0511 0.0337 -0.0511
v  0.0799 0.0508 0.0799
v  -0.0799 0.0508 0.0799
v  0.0799 0.0508 -0.0799
v  -0.0799 0.0508 -0.0799
v  0.1118 0.0636 0.1118
v  -0.1118 0.0636 0.1118
v  0.1118 0.0636 -0.1118
v  -0.1118 0.0636 -0.1118
# 32 vertices

vn 0.0000 -1.0000 -0.0000
vn 0.0000 -0.5635 0.8261
vn 0.8261 -0.5635 -0.0000
vn 0.0000 -0.5635 -0.8261
vn -0.8261 -0.5635 -0.0000
vn 0.0000 -0.8602 0.5100
vn 0.5100 -0.8602 -0.0000
vn 0.0000 -0.8602 -0.5100
vn -0.5100 -0.8602 -0.0000
vn 0.0000 -0.9281 0.3724
vn 0.3724 -0.9281 -0.0000
vn 0.0000 -0.9281 -0.3724
vn -0.3724 -0.9281 -0.0000
vn 0.0000 1.0000 -0.0000
vn 0.0000 0.5660 -0.8244
vn -0.8244 0.5660 -0.0000
vn 0.0000 0.5660 0.8244
vn 0.8244 0.5660 -0.0000
vn 0.0000 0.8598 -0.5107
vn -0.5107 0.8598 -0.0000
vn 0.0000 0.8598 0.5107
vn 0.5107 0.8598 -0.0000
vn 0.0000 0.9280 -0.3725
vn -0.3725 0.9280 -0.0000
vn 0.0000 0.9280 0.3725
vn 0.3725 0.9280 -0.0000
vn 0.0000 0.1967 0.9805
vn 0.9805 0.1967 -0.0000
vn 0.0000 0.1967 -0.9805
vn -0.9805 0.1967 -0.0000
# 30 vertex normals

vt 1.0000 0.0000 0.0000
vt 1.0000 1.0000 0.0000
vt 0.0000 1.0000 0.0000
vt 0.0000 0.0000 0.0000
# 4 texture coords

g Box011
s 2
f 1/1/1 2/2/1 3/3/1 4/4/1 
s 8
f 1/4/2 4/1/2 5/2/2 6/3/2 
s 16
f 4/4/3 3/1/3 7/2/3 5/3/3 
s 32
f 3/4/4 2/1/4 8/2/4 7/3/4 
s 64
f 2/4/5 1/1/5 6/2/5 8/3/5 
s off
f 6/3/6 5/2/6 9/2/6 10/3/6 
f 5/3/7 7/2/7 11/2/7 9/3/7 
f 7/3/8 8/2/8 12/2/8 11/3/8 
f 8/3/9 6/2/9 10/2/9 12/3/9 
f 10/3/10 9/2/10 13/2/10 14/3/10 
f 9/3/11 11/2/11 15/2/11 13/3/11 
f 11/3/12 12/2/12 16/2/12 15/3/12 
f 12/3/13 10/2/13 14/2/13 16/3/13 
s 2
f 17/3/14 18/2/14 19/1/14 20/4/14 
s 8
f 21/2/15 20/1/15 19/4/15 22/3/15 
s 16
f 23/2/16 17/1/16 20/4/16 21/3/16 
s 32
f 24/2/17 18/1/17 17/4/17 23/3/17 
s 64
f 22/2/18 19/1/18 18/4/18 24/3/18 
s off
f 25/2/19 21/2/19 22/3/19 26/3/19 
f 27/2/20 23/2/20 21/3/20 25/3/20 
f 28/2/21 24/2/21 23/3/21 27/3/21 
f 26/2/22 22/2/22 24/3/22 28/3/22 
f 29/2/23 25/2/23 26/3/23 30/3/23 
f 31/2/24 27/2/24 25/3/24 29/3/24 
f 32/2/25 28/2/25 27/3/25 31/3/25 
f 30/2/26 26/2/26 28/3/26 32/3/26 
s 1
f 14/3/27 13/2/27 29/2/27 30/3/27 
s 2
f 13/3/28 15/2/28 31/2/28 29/3/28 
s 1
f 15/3/29 16/2/29 32/2/29 31/3/29 
s 2
f 16/3/30 14/2/30 30/2/30 32/3/30 
# 30 polygons

