# 3ds Max Wavefront OBJ Exporter v0.97b - (c)2007 guruware
# File Created: 26.01.2019 09:10:03

#
# object DoorFrame
#

v  -0.4259 1.7767 0.0721
v  0.4259 1.7767 0.0721
v  0.4259 1.7767 -0.0721
v  -0.4259 1.7767 -0.0721
v  0.4259 0.0000 0.0721
v  0.4259 0.0000 -0.0721
v  -0.4259 0.0000 -0.0721
v  -0.4259 0.0000 0.0721
v  -0.3609 0.0000 -0.0721
v  -0.3609 0.0000 0.0721
v  -0.3609 1.7117 -0.0721
v  0.3609 1.7117 -0.0721
v  0.3609 0.0000 -0.0721
v  0.3609 0.0000 0.0721
v  0.3609 1.7117 0.0721
v  -0.3609 1.7117 0.0721
# 16 vertices

vn 0.0000 1.0000 -0.0000
vn 1.0000 0.0000 -0.0000
vn -1.0000 0.0000 -0.0000
vn 0.0000 -1.0000 -0.0000
vn 0.0000 0.0000 -1.0000
vn 0.0000 0.0000 1.0000
# 6 vertex normals

vt 0.4795 0.7339 0.0000
vt 0.0020 0.7339 0.0000
vt 0.0020 0.6530 0.0000
vt 0.4795 0.6530 0.0000
vt 0.9980 0.1056 0.0000
vt 0.9980 0.1865 0.0000
vt 0.0020 0.1865 0.0000
vt 0.0020 0.1056 0.0000
vt 0.9980 0.0020 0.0000
vt 0.9980 0.0829 0.0000
vt 0.0020 0.0829 0.0000
vt 0.0020 0.0020 0.0000
vt 0.5102 0.7930 0.0000
vt 0.4294 0.7930 0.0000
vt 0.4294 0.7566 0.0000
vt 0.5102 0.7566 0.0000
vt 0.9980 0.6303 0.0000
vt 0.0020 0.6303 0.0000
vt 0.0384 0.5938 0.0000
vt 0.9980 0.5938 0.0000
vt 0.5022 0.6530 0.0000
vt 0.9797 0.6530 0.0000
vt 0.9433 0.6894 0.0000
vt 0.5387 0.6894 0.0000
vt 0.0020 0.4164 0.0000
vt 0.9980 0.4164 0.0000
vt 0.9980 0.4528 0.0000
vt 0.0384 0.4528 0.0000
vt 0.0020 0.9193 0.0000
vt 0.0829 0.9193 0.0000
vt 0.0829 0.9558 0.0000
vt 0.0020 0.9558 0.0000
vt 0.9980 0.5711 0.0000
vt 0.0020 0.5711 0.0000
vt 0.0384 0.5347 0.0000
vt 0.9980 0.5347 0.0000
vt 0.0020 0.8602 0.0000
vt 0.4795 0.8602 0.0000
vt 0.4431 0.8966 0.0000
vt 0.0384 0.8966 0.0000
vt 0.0020 0.4755 0.0000
vt 0.9980 0.4755 0.0000
vt 0.9980 0.5120 0.0000
vt 0.0384 0.5120 0.0000
vt 0.9616 0.2092 0.0000
vt 0.9616 0.2901 0.0000
vt 0.0020 0.2901 0.0000
vt 0.0020 0.2092 0.0000
vt 0.4066 0.7566 0.0000
vt 0.4066 0.8375 0.0000
vt 0.0020 0.8375 0.0000
vt 0.0020 0.7566 0.0000
vt 0.0020 0.3936 0.0000
vt 0.0020 0.3128 0.0000
vt 0.9616 0.3128 0.0000
vt 0.9616 0.3936 0.0000
# 56 texture coords

g DoorFrame
s 4
f 1/1/1 2/2/1 3/3/1 4/4/1 
s 16
f 5/5/2 6/6/2 3/7/2 2/8/2 
s 64
f 7/9/3 8/10/3 1/11/3 4/12/3 
s off
f 8/13/4 7/14/4 9/15/4 10/16/4 
f 7/17/5 4/18/5 11/19/5 9/20/5 
f 4/21/5 3/22/5 12/23/5 11/24/5 
f 3/25/5 6/26/5 13/27/5 12/28/5 
f 6/29/4 5/30/4 14/31/4 13/32/4 
f 5/33/6 2/34/6 15/35/6 14/36/6 
f 2/37/6 1/38/6 16/39/6 15/40/6 
f 1/41/6 8/42/6 10/43/6 16/44/6 
s 1
f 10/45/2 9/46/2 11/47/2 16/48/2 
s 2
f 16/49/4 11/50/4 12/51/4 15/52/4 
s 1
f 15/53/3 12/54/3 13/55/3 14/56/3 
# 14 polygons

#
# object Door
#

v  -0.0000 0.0000 0.0001
v  -0.0000 0.0000 -0.0499
v  0.7218 0.0000 -0.0499
v  0.7218 0.0000 0.0001
v  -0.0000 1.7117 0.0001
v  0.7218 1.7117 0.0001
v  0.7218 1.7117 -0.0499
v  -0.0000 1.7117 -0.0499
v  0.5718 0.1500 -0.0124
v  0.5718 0.7059 -0.0124
v  0.1500 0.7059 -0.0124
v  0.1500 0.1500 -0.0124
v  0.7218 0.8559 -0.0499
v  0.7218 0.8559 0.0001
v  -0.0000 0.8559 -0.0499
v  -0.0000 0.8559 0.0001
v  0.5718 1.5617 -0.0124
v  0.1500 1.5617 -0.0124
v  0.1500 1.0059 -0.0124
v  0.5718 1.0059 -0.0124
v  0.6218 0.1000 0.0001
v  0.1000 0.1000 0.0001
v  0.6218 0.7559 0.0001
v  0.1000 0.7559 0.0001
v  0.6218 1.6117 0.0001
v  0.6218 0.9559 0.0001
v  0.1000 1.6117 0.0001
v  0.1000 0.9559 0.0001
v  0.6220 0.8158 0.0736
v  0.6620 0.8558 0.0736
v  0.6220 0.8958 0.0736
v  0.5820 0.8558 0.0736
v  0.6620 0.8558 -0.0064
v  0.6771 0.8558 0.0336
v  0.6220 0.8007 0.0336
v  0.6220 0.8158 -0.0064
v  0.6220 0.8958 -0.0064
v  0.6220 0.9109 0.0336
v  0.5820 0.8558 -0.0064
v  0.5669 0.8558 0.0336
# 40 vertices

vn 0.0000 -1.0000 -0.0000
vn 0.0000 1.0000 -0.0000
vn 0.0000 0.0000 1.0000
vn 1.0000 0.0000 -0.0000
vn 0.0000 0.0000 -1.0000
vn -1.0000 0.0000 -0.0000
vn 0.0000 0.2425 0.9701
vn -0.2425 0.0000 0.9701
vn 0.0000 -0.2425 0.9701
vn 0.2425 0.0000 0.9701
vn 0.6832 -0.6832 -0.2579
vn 0.6832 0.6832 -0.2579
vn -0.6832 0.6832 -0.2579
vn -0.6832 -0.6832 -0.2579
vn 0.6832 -0.6832 0.2579
vn 0.6832 0.6832 0.2579
vn -0.6832 0.6832 0.2579
vn -0.6832 -0.6832 0.2579
# 18 vertex normals

vt 0.4018 0.9675 0.0000
vt 0.4018 0.9950 0.0000
vt 0.0050 0.9950 0.0000
vt 0.0050 0.9675 0.0000
vt 0.4018 0.9539 0.0000
vt 0.0050 0.9539 0.0000
vt 0.0050 0.9264 0.0000
vt 0.4018 0.9264 0.0000
vt 0.0875 0.5025 0.0000
vt 0.3930 0.5025 0.0000
vt 0.3930 0.7343 0.0000
vt 0.0875 0.7343 0.0000
vt 0.0050 0.8807 0.0000
vt 0.4755 0.8807 0.0000
vt 0.4755 0.9082 0.0000
vt 0.0050 0.9082 0.0000
vt 0.0050 0.0050 0.0000
vt 0.4755 0.0050 0.0000
vt 0.4755 0.4018 0.0000
vt 0.0050 0.4018 0.0000
vt 0.0050 0.8350 0.0000
vt 0.4755 0.8350 0.0000
vt 0.4755 0.8625 0.0000
vt 0.0050 0.8625 0.0000
vt 0.8635 0.5025 0.0000
vt 0.8635 0.7343 0.0000
vt 0.5579 0.7343 0.0000
vt 0.5579 0.5025 0.0000
vt 0.9459 0.8807 0.0000
vt 0.9459 0.9082 0.0000
vt 0.9459 0.0050 0.0000
vt 0.9459 0.4018 0.0000
vt 0.9459 0.8350 0.0000
vt 0.9459 0.8625 0.0000
vt 0.0050 0.8168 0.0000
vt 0.0050 0.4200 0.0000
vt 0.0600 0.4750 0.0000
vt 0.0600 0.7618 0.0000
vt 0.4755 0.4200 0.0000
vt 0.4205 0.4750 0.0000
vt 0.4755 0.8168 0.0000
vt 0.4205 0.7618 0.0000
vt 0.9459 0.4200 0.0000
vt 0.8910 0.4750 0.0000
vt 0.5304 0.4750 0.0000
vt 0.9459 0.8168 0.0000
vt 0.8910 0.7618 0.0000
vt 0.5304 0.7618 0.0000
vt 0.6545 0.9264 0.0000
vt 0.6855 0.9294 0.0000
vt 0.6825 0.9603 0.0000
vt 0.6515 0.9573 0.0000
vt 0.4161 0.9317 0.0000
vt 0.4390 0.9264 0.0000
vt 0.4381 0.9692 0.0000
vt 0.4154 0.9628 0.0000
vt 0.5387 0.9319 0.0000
vt 0.5616 0.9264 0.0000
vt 0.5609 0.9692 0.0000
vt 0.5382 0.9630 0.0000
vt 0.5193 0.9639 0.0000
vt 0.4964 0.9692 0.0000
vt 0.4974 0.9264 0.0000
vt 0.5200 0.9328 0.0000
vt 0.6374 0.9637 0.0000
vt 0.6145 0.9692 0.0000
vt 0.6152 0.9264 0.0000
vt 0.6379 0.9326 0.0000
vt 0.4586 0.9327 0.0000
vt 0.4579 0.9638 0.0000
vt 0.5812 0.9326 0.0000
vt 0.5807 0.9637 0.0000
vt 0.4768 0.9629 0.0000
vt 0.4775 0.9318 0.0000
vt 0.5949 0.9630 0.0000
vt 0.5954 0.9319 0.0000
# 76 texture coords

g Door
s off
f 17/57/7 18/58/7 19/59/7 20/60/7 
f 21/61/8 22/62/8 23/63/8 24/64/8 
f 25/65/9 26/66/9 27/67/9 28/68/9 
f 19/69/10 29/70/10 30/71/10 20/72/10 
f 18/73/11 31/74/11 29/75/11 19/76/11 
f 17/77/12 32/78/12 31/79/12 18/80/12 
f 33/81/9 34/82/9 35/83/9 36/84/9 
f 23/85/10 22/86/10 30/71/10 29/70/10 
f 24/87/11 23/88/11 29/75/11 31/74/11 
f 21/89/12 24/90/12 31/79/12 32/78/12 
f 17/91/9 20/92/9 37/93/9 38/94/9 
f 20/92/9 30/95/9 39/96/9 37/93/9 
f 30/95/9 32/97/9 40/98/9 39/96/9 
f 32/97/9 17/91/9 38/94/9 40/98/9 
f 30/95/9 22/99/9 41/100/9 42/101/9 
f 22/99/9 21/102/9 43/103/9 41/100/9 
f 21/102/9 32/97/9 44/104/9 43/103/9 
f 32/97/9 30/95/9 42/101/9 44/104/9 
f 38/94/13 37/93/13 25/65/13 28/68/13 
f 37/93/14 39/96/14 26/66/14 25/65/14 
f 39/96/15 40/98/15 27/67/15 26/66/15 
f 40/98/16 38/94/16 28/68/16 27/67/16 
f 42/101/14 41/100/14 33/81/14 36/84/14 
f 41/100/15 43/103/15 34/82/15 33/81/15 
f 43/103/16 44/104/16 35/83/16 34/82/16 
f 44/104/13 42/101/13 36/84/13 35/83/13 
f 45/105/9 46/106/9 47/107/9 48/108/9 
f 49/109/17 50/110/17 51/111/17 52/112/17 
f 53/113/18 54/114/18 50/115/18 49/116/18 
f 55/117/19 56/118/19 54/119/19 53/120/19 
f 52/121/20 51/122/20 56/123/20 55/124/20 
f 46/125/21 45/126/21 51/111/21 50/110/21 
f 47/127/22 46/128/22 50/115/22 54/114/22 
f 48/129/23 47/130/23 54/119/23 56/118/23 
f 45/131/24 48/132/24 56/123/24 51/122/24 
# 35 polygons

