# 3ds Max Wavefront OBJ Exporter v0.97b - (c)2007 guruware
# File Created: 26.01.2019 07:55:50

#
# object Box008
#

v  0.0312 0.0000 -0.0312
v  0.0312 0.0000 0.0312
v  -0.0312 0.0000 0.0312
v  -0.0312 0.0000 -0.0312
v  0.0400 0.1508 0.0400
v  -0.0400 0.1508 0.0400
v  0.0400 0.1508 -0.0400
v  -0.0400 0.1508 -0.0400
v  -0.0200 0.0122 0.0200
v  0.0200 0.0122 0.0200
v  0.0200 0.0122 -0.0200
v  -0.0200 0.0122 -0.0200
v  -0.0259 0.1508 0.0259
v  0.0259 0.1508 0.0259
v  0.0259 0.1508 -0.0259
v  -0.0259 0.1508 -0.0259
# 16 vertices

vn 0.0000 -1.0000 -0.0000
vn 0.0000 -0.0580 0.9983
vn 0.9983 -0.0580 -0.0000
vn 0.0000 -0.0580 -0.9983
vn -0.9983 -0.0580 -0.0000
vn 0.0000 1.0000 -0.0000
vn 0.0000 0.0425 -0.9991
vn -0.0000 0.0425 -0.9991
vn -0.9991 0.0425 -0.0000
vn -0.9991 0.0425 0.0000
vn -0.0000 0.0425 0.9991
vn 0.0000 0.0425 0.9991
vn 0.9991 0.0425 0.0000
vn 0.9991 0.0425 -0.0000
# 14 vertex normals

vt 0.0000 1.0000 0.0000
vt 0.0000 0.0000 0.0000
vt 1.0000 0.0000 0.0000
vt 1.0000 1.0000 0.0000
# 4 texture coords

g Box008
s 2
f 1/1/1 2/2/1 3/3/1 4/4/1 
s 8
f 5/4/2 6/1/2 3/2/2 2/3/2 
s 16
f 7/4/3 5/1/3 2/2/3 1/3/3 
s 32
f 8/4/4 7/1/4 1/2/4 4/3/4 
s 64
f 6/4/5 8/1/5 4/2/5 3/3/5 
s 2
f 9/3/6 10/2/6 11/1/6 12/4/6 
s 8
f 9/2/7 13/1/8 14/4/8 10/3/7 
s 16
f 10/2/9 14/1/10 15/4/10 11/3/9 
s 32
f 11/2/11 15/1/12 16/4/12 12/3/11 
s 64
f 12/2/13 16/1/14 13/4/14 9/3/13 
s 1
f 14/4/6 13/1/6 6/1/6 5/4/6 
f 15/4/6 14/1/6 5/1/6 7/4/6 
f 16/4/6 15/1/6 7/1/6 8/4/6 
f 13/4/6 16/1/6 8/1/6 6/4/6 
# 14 polygons

