# 3ds Max Wavefront OBJ Exporter v0.97b - (c)2007 guruware
# File Created: 26.01.2019 06:57:26

#
# object Box007
#

v  0.1375 0.8674 0.3750
v  -0.1459 0.8674 0.3750
v  -0.1459 0.4830 0.3750
v  0.1375 0.4830 0.3750
v  -0.0625 0.8424 -0.3500
v  -0.0625 0.8424 0.3500
v  -0.0625 0.5080 0.3500
v  -0.0625 0.5080 -0.3500
v  -0.1459 0.8674 -0.3750
v  0.1375 0.8674 -0.3750
v  0.1375 0.4830 -0.3750
v  -0.1459 0.4830 -0.3750
v  -0.1459 1.6362 0.3750
v  0.1375 1.6362 0.3750
v  0.1716 1.6732 0.4090
v  -0.1459 1.6732 0.4090
v  0.1375 1.6362 -0.3750
v  0.1716 1.6732 -0.4090
v  -0.1459 1.6362 -0.3750
v  -0.1459 1.6732 -0.4090
v  0.1716 1.7125 0.4090
v  -0.1459 1.7125 0.4090
v  0.1716 1.7125 -0.4090
v  -0.1459 1.7125 -0.4090
v  0.2062 1.7570 0.4429
v  -0.1459 1.7570 0.4429
v  0.2062 1.7570 -0.4429
v  -0.1459 1.7570 -0.4429
v  0.2062 1.8046 0.4429
v  -0.1459 1.8046 0.4429
v  0.2062 1.8046 -0.4429
v  -0.1459 1.8046 -0.4429
v  -0.1459 0.0987 0.3750
v  -0.1459 0.0987 -0.3750
v  -0.1710 0.0987 -0.4072
v  -0.1710 0.0987 0.4072
v  0.1375 0.0987 -0.3750
v  0.1629 0.0987 -0.4072
v  0.1375 0.0987 0.3750
v  0.1629 0.0987 0.4072
v  -0.1710 0.0581 -0.4072
v  -0.1710 0.0581 0.4072
v  0.1629 0.0581 -0.4072
v  0.1629 0.0581 0.4072
v  0.0890 0.0000 0.3698
v  0.0890 0.0000 0.3266
v  0.1322 0.0000 0.3266
v  0.1322 0.0000 0.3698
v  0.0890 0.0600 0.3698
v  0.1322 0.0600 0.3698
v  0.1322 0.0600 0.3266
v  0.0890 0.0600 0.3266
v  0.1374 0.0300 0.3750
v  0.0838 0.0300 0.3750
v  0.1374 0.0300 0.3213
v  0.0838 0.0300 0.3213
v  0.0890 0.0000 -0.3260
v  0.0890 0.0000 -0.3692
v  0.1322 0.0000 -0.3692
v  0.1322 0.0000 -0.3260
v  0.0890 0.0600 -0.3260
v  0.1322 0.0600 -0.3260
v  0.1322 0.0600 -0.3692
v  0.0890 0.0600 -0.3692
v  0.1374 0.0300 -0.3208
v  0.0838 0.0300 -0.3208
v  0.1374 0.0300 -0.3745
v  0.0838 0.0300 -0.3745
v  -0.1402 0.0000 -0.3260
v  -0.1402 0.0000 -0.3692
v  -0.0970 0.0000 -0.3692
v  -0.0970 0.0000 -0.3260
v  -0.1402 0.0600 -0.3260
v  -0.0970 0.0600 -0.3260
v  -0.0970 0.0600 -0.3692
v  -0.1402 0.0600 -0.3692
v  -0.0918 0.0300 -0.3208
v  -0.1455 0.0300 -0.3208
v  -0.0918 0.0300 -0.3745
v  -0.1455 0.0300 -0.3745
v  -0.1402 0.0000 0.3698
v  -0.1402 0.0000 0.3266
v  -0.0970 0.0000 0.3266
v  -0.0970 0.0000 0.3698
v  -0.1402 0.0600 0.3698
v  -0.0970 0.0600 0.3698
v  -0.0970 0.0600 0.3266
v  -0.1402 0.0600 0.3266
v  -0.0918 0.0300 0.3750
v  -0.1455 0.0300 0.3750
v  -0.0918 0.0300 0.3213
v  -0.1455 0.0300 0.3213
v  -0.1459 1.2518 0.3750
v  0.1375 1.2518 0.3750
v  -0.0625 1.6112 -0.3500
v  -0.0625 1.6112 0.3500
v  -0.0625 1.2768 0.3500
v  -0.0625 1.2768 -0.3500
v  -0.0625 1.2268 -0.3500
v  -0.0625 1.2268 0.3500
v  -0.0625 0.8924 0.3500
v  -0.0625 0.8924 -0.3500
v  -0.0625 0.1237 0.3500
v  -0.0625 0.1237 -0.3500
v  -0.0625 0.4580 -0.3500
v  -0.0625 0.4580 0.3500
v  0.1375 1.2518 -0.3750
v  -0.1459 1.2518 -0.3750
v  0.1375 0.8424 -0.3500
v  0.1375 0.5080 -0.3500
v  0.1375 0.8424 0.3500
v  0.1375 0.5080 0.3500
v  0.1375 1.6112 -0.3500
v  0.1375 1.2768 -0.3500
v  0.1375 1.6112 0.3500
v  0.1375 1.2768 0.3500
v  0.1375 1.2268 -0.3500
v  0.1375 0.8924 -0.3500
v  0.1375 1.2268 0.3500
v  0.1375 0.8924 0.3500
v  0.1375 0.1237 0.3500
v  0.1375 0.4580 0.3500
v  0.1375 0.1237 -0.3500
v  0.1375 0.4580 -0.3500
# 124 vertices

vn 0.0000 0.0000 1.0000
vn 1.0000 0.0000 -0.0000
vn 0.0000 0.0000 -1.0000
vn -1.0000 0.0000 -0.0000
vn 0.0000 -0.6763 0.7366
vn 0.7348 -0.6783 -0.0000
vn 0.0000 -0.6763 -0.7366
vn 0.0000 -0.6068 0.7949
vn 0.7898 -0.6134 -0.0000
vn 0.0000 -0.6068 -0.7949
vn 0.0000 1.0000 -0.0000
vn 0.0000 -1.0000 -0.0000
vn 0.0000 -0.1716 0.9852
vn 0.9852 -0.1716 -0.0000
vn 0.0000 -0.1716 -0.9852
vn -0.9852 -0.1716 -0.0000
vn 0.0000 0.1716 0.9852
vn 0.9852 0.1716 -0.0000
vn 0.0000 0.1716 -0.9852
vn -0.9852 0.1716 -0.0000
# 20 vertex normals

vt 1.0000 0.5000 0.0000
vt 0.0000 0.5000 0.0000
vt 0.0000 0.2500 0.0000
vt 1.0000 0.2500 0.0000
vt 0.0000 1.0000 0.0000
vt 1.0000 1.0000 0.0000
vt 1.0000 0.0000 0.0000
vt 0.0000 0.0000 0.0000
vt 0.0000 0.7500 0.0000
vt 1.0000 0.7500 0.0000
# 10 texture coords

g Box007
s 8
f 1/1/1 2/2/1 3/3/1 4/4/1 
s 16
f 5/1/2 6/2/2 7/3/2 8/4/2 
s 32
f 9/1/3 10/2/3 11/3/3 12/4/3 
s 64
f 2/1/4 9/2/4 12/3/4 3/4/4 
s off
f 13/5/5 14/6/5 15/6/5 16/5/5 
f 14/5/6 17/6/6 18/6/6 15/5/6 
f 17/5/7 19/6/7 20/6/7 18/5/7 
f 19/5/4 13/6/4 16/6/4 20/5/4 
f 16/5/1 15/6/1 21/6/1 22/5/1 
f 15/5/2 18/6/2 23/6/2 21/5/2 
f 18/5/3 20/6/3 24/6/3 23/5/3 
f 20/5/4 16/6/4 22/6/4 24/5/4 
f 22/5/8 21/6/8 25/6/8 26/5/8 
f 21/5/9 23/6/9 27/6/9 25/5/9 
f 23/5/10 24/6/10 28/6/10 27/5/10 
f 24/5/4 22/6/4 26/6/4 28/5/4 
f 26/5/1 25/6/1 29/6/1 30/5/1 
f 25/5/2 27/6/2 31/6/2 29/5/2 
f 27/5/3 28/6/3 32/6/3 31/5/3 
f 28/5/4 26/6/4 30/6/4 32/5/4 
s 1
f 30/6/11 29/5/11 31/5/11 32/6/11 
s off
f 33/7/11 34/8/11 35/8/11 36/7/11 
f 34/7/11 37/8/11 38/8/11 35/7/11 
f 37/7/11 39/8/11 40/8/11 38/7/11 
f 39/7/11 33/8/11 36/8/11 40/7/11 
f 36/7/4 35/8/4 41/8/4 42/7/4 
f 35/7/3 38/8/3 43/8/3 41/7/3 
f 38/7/2 40/8/2 44/8/2 43/7/2 
f 40/7/1 36/8/1 42/8/1 44/7/1 
f 43/8/12 44/8/12 42/8/12 41/8/12 
f 45/7/12 46/6/12 47/5/12 48/8/12 
f 49/8/11 50/7/11 51/6/11 52/5/11 
f 48/7/13 53/1/13 54/2/13 45/8/13 
f 47/7/14 55/1/14 53/2/14 48/8/14 
f 46/7/15 56/1/15 55/2/15 47/8/15 
f 45/7/16 54/1/16 56/2/16 46/8/16 
f 50/6/17 49/5/17 54/2/17 53/1/17 
f 51/6/18 50/5/18 53/2/18 55/1/18 
f 52/6/19 51/5/19 55/2/19 56/1/19 
f 49/6/20 52/5/20 56/2/20 54/1/20 
f 57/7/12 58/6/12 59/5/12 60/8/12 
f 61/8/11 62/7/11 63/6/11 64/5/11 
f 60/7/13 65/1/13 66/2/13 57/8/13 
f 59/7/14 67/1/14 65/2/14 60/8/14 
f 58/7/15 68/1/15 67/2/15 59/8/15 
f 57/7/16 66/1/16 68/2/16 58/8/16 
f 62/6/17 61/5/17 66/2/17 65/1/17 
f 63/6/18 62/5/18 65/2/18 67/1/18 
f 64/6/19 63/5/19 67/2/19 68/1/19 
f 61/6/20 64/5/20 68/2/20 66/1/20 
f 69/7/12 70/6/12 71/5/12 72/8/12 
f 73/8/11 74/7/11 75/6/11 76/5/11 
f 72/7/13 77/1/13 78/2/13 69/8/13 
f 71/7/14 79/1/14 77/2/14 72/8/14 
f 70/7/15 80/1/15 79/2/15 71/8/15 
f 69/7/16 78/1/16 80/2/16 70/8/16 
f 74/6/17 73/5/17 78/2/17 77/1/17 
f 75/6/18 74/5/18 77/2/18 79/1/18 
f 76/6/19 75/5/19 79/2/19 80/1/19 
f 73/6/20 76/5/20 80/2/20 78/1/20 
f 81/7/12 82/6/12 83/5/12 84/8/12 
f 85/8/11 86/7/11 87/6/11 88/5/11 
f 84/7/13 89/1/13 90/2/13 81/8/13 
f 83/7/14 91/1/14 89/2/14 84/8/14 
f 82/7/15 92/1/15 91/2/15 83/8/15 
f 81/7/16 90/1/16 92/2/16 82/8/16 
f 86/6/17 85/5/17 90/2/17 89/1/17 
f 87/6/18 86/5/18 89/2/18 91/1/18 
f 88/6/19 87/5/19 91/2/19 92/1/19 
f 85/6/20 88/5/20 92/2/20 90/1/20 
s 8
f 14/6/1 13/5/1 93/9/1 94/10/1 
f 94/10/1 93/9/1 2/2/1 1/1/1 
f 33/8/1 39/7/1 4/4/1 3/3/1 
s 16
f 95/6/2 96/5/2 97/9/2 98/10/2 
f 99/10/2 100/9/2 101/2/2 102/1/2 
f 103/8/2 104/7/2 105/4/2 106/3/2 
s 32
f 19/6/3 17/5/3 107/9/3 108/10/3 
f 108/10/3 107/9/3 10/2/3 9/1/3 
f 37/8/3 34/7/3 12/4/3 11/3/3 
s 64
f 13/6/4 19/5/4 108/9/4 93/10/4 
f 93/10/4 108/9/4 9/2/4 2/1/4 
f 34/8/4 33/7/4 3/4/4 12/3/4 
s off
f 11/4/2 10/1/2 109/1/2 110/4/2 
f 10/1/2 1/2/2 111/2/2 109/1/2 
f 1/2/2 4/3/2 112/3/2 111/2/2 
f 4/3/2 11/4/2 110/4/2 112/3/2 
f 107/10/2 17/6/2 113/6/2 114/10/2 
f 17/6/2 14/5/2 115/5/2 113/6/2 
f 14/5/2 94/9/2 116/9/2 115/5/2 
f 94/9/2 107/10/2 114/10/2 116/9/2 
f 10/1/2 107/10/2 117/10/2 118/1/2 
f 107/10/2 94/9/2 119/9/2 117/10/2 
f 94/9/2 1/2/2 120/2/2 119/9/2 
f 1/2/2 10/1/2 118/1/2 120/2/2 
f 4/3/2 39/8/2 121/8/2 122/3/2 
f 39/8/2 37/7/2 123/7/2 121/8/2 
f 37/7/2 11/4/2 124/4/2 123/7/2 
f 11/4/2 4/3/2 122/3/2 124/4/2 
f 110/4/1 109/1/1 5/1/1 8/4/1 
f 109/1/12 111/2/12 6/2/12 5/1/12 
f 111/2/3 112/3/3 7/3/3 6/2/3 
f 112/3/11 110/4/11 8/4/11 7/3/11 
f 114/10/1 113/6/1 95/6/1 98/10/1 
f 113/6/12 115/5/12 96/5/12 95/6/12 
f 115/5/3 116/9/3 97/9/3 96/5/3 
f 116/9/11 114/10/11 98/10/11 97/9/11 
f 118/1/1 117/10/1 99/10/1 102/1/1 
f 117/10/12 119/9/12 100/9/12 99/10/12 
f 119/9/3 120/2/3 101/2/3 100/9/3 
f 120/2/11 118/1/11 102/1/11 101/2/11 
f 122/3/3 121/8/3 103/8/3 106/3/3 
f 121/8/11 123/7/11 104/7/11 103/8/11 
f 123/7/1 124/4/1 105/4/1 104/7/1 
f 124/4/12 122/3/12 106/3/12 105/4/12 
# 114 polygons

