# 3ds Max Wavefront OBJ Exporter v0.97b - (c)2007 guruware
# File Created: 26.01.2019 03:49:10

#
# object Low_table
#

v  -0.3350 0.3750 0.5850
v  -0.3350 0.3750 -0.5850
v  0.3350 0.3750 -0.5850
v  0.3350 0.3750 0.5850
v  -0.3500 0.4250 0.6000
v  0.3500 0.4250 0.6000
v  0.3500 0.4250 -0.6000
v  -0.3500 0.4250 -0.6000
v  -0.3500 0.4000 0.6000
v  0.3500 0.4000 0.6000
v  0.3500 0.4000 -0.6000
v  -0.3500 0.4000 -0.6000
v  -0.3350 0.4000 -0.5850
v  -0.3350 0.4000 0.5850
v  0.3350 0.4000 -0.5850
v  0.3350 0.4000 0.5850
v  0.2750 0.0000 -0.5250
v  0.2750 0.0000 -0.5750
v  0.3250 0.0000 -0.5750
v  0.3250 0.0000 -0.5250
v  0.3250 0.4000 -0.5250
v  0.2750 0.4000 -0.5250
v  0.3250 0.4000 -0.5750
v  0.2750 0.4000 -0.5750
v  -0.3250 0.0000 -0.5250
v  -0.3250 0.0000 -0.5750
v  -0.2750 0.0000 -0.5750
v  -0.2750 0.0000 -0.5250
v  -0.2750 0.4000 -0.5250
v  -0.3250 0.4000 -0.5250
v  -0.2750 0.4000 -0.5750
v  -0.3250 0.4000 -0.5750
v  0.2750 0.0000 0.5750
v  0.2750 0.0000 0.5250
v  0.3250 0.0000 0.5250
v  0.3250 0.0000 0.5750
v  0.3250 0.4000 0.5750
v  0.2750 0.4000 0.5750
v  0.3250 0.4000 0.5250
v  0.2750 0.4000 0.5250
v  -0.3250 0.0000 0.5750
v  -0.3250 0.0000 0.5250
v  -0.2750 0.0000 0.5250
v  -0.2750 0.0000 0.5750
v  -0.2750 0.4000 0.5750
v  -0.3250 0.4000 0.5750
v  -0.2750 0.4000 0.5250
v  -0.3250 0.4000 0.5250
v  -0.3250 0.1500 0.5750
v  -0.3250 0.1500 -0.5750
v  0.3250 0.1500 -0.5750
v  0.3250 0.1500 0.5750
v  -0.3250 0.1750 0.5750
v  0.3250 0.1750 0.5750
v  0.3250 0.1750 -0.5750
v  -0.3250 0.1750 -0.5750
# 56 vertices

vn 0.0000 -1.0000 -0.0000
vn 0.0000 1.0000 -0.0000
vn 0.0000 0.0000 1.0000
vn 1.0000 0.0000 -0.0000
vn 0.0000 0.0000 -1.0000
vn -1.0000 0.0000 -0.0000
# 6 vertex normals

vt 1.0000 0.0000 0.0000
vt 1.0000 1.0000 0.0000
vt 0.0000 1.0000 0.0000
vt 0.0000 0.0000 0.0000
# 4 texture coords

g Low_table
s 2
f 1/1/1 2/2/1 3/3/1 4/4/1 
s 4
f 5/4/2 6/1/2 7/2/2 8/3/2 
s 8
f 9/4/3 10/1/3 6/2/3 5/3/3 
s 16
f 10/4/4 11/1/4 7/2/4 6/3/4 
s 32
f 11/4/5 12/1/5 8/2/5 7/3/5 
s 64
f 12/4/6 9/1/6 5/2/6 8/3/6 
s off
f 9/1/1 12/2/1 13/2/1 14/1/1 
f 12/2/1 11/3/1 15/3/1 13/2/1 
f 11/3/1 10/4/1 16/4/1 15/3/1 
f 10/4/1 9/1/1 14/1/1 16/4/1 
f 14/1/6 13/2/6 2/2/6 1/1/6 
f 13/2/5 15/3/5 3/3/5 2/2/5 
f 15/3/4 16/4/4 4/4/4 3/3/4 
f 16/4/3 14/1/3 1/1/3 4/4/3 
s 2
f 17/1/1 18/2/1 19/3/1 20/4/1 
s 8
f 17/4/3 20/1/3 21/2/3 22/3/3 
s 16
f 20/4/4 19/1/4 23/2/4 21/3/4 
s 32
f 19/4/5 18/1/5 24/2/5 23/3/5 
s 64
f 18/4/6 17/1/6 22/2/6 24/3/6 
s 2
f 25/1/1 26/2/1 27/3/1 28/4/1 
s 8
f 25/4/3 28/1/3 29/2/3 30/3/3 
s 16
f 28/4/4 27/1/4 31/2/4 29/3/4 
s 32
f 27/4/5 26/1/5 32/2/5 31/3/5 
s 64
f 26/4/6 25/1/6 30/2/6 32/3/6 
s 2
f 33/1/1 34/2/1 35/3/1 36/4/1 
s 8
f 33/4/3 36/1/3 37/2/3 38/3/3 
s 16
f 36/4/4 35/1/4 39/2/4 37/3/4 
s 32
f 35/4/5 34/1/5 40/2/5 39/3/5 
s 64
f 34/4/6 33/1/6 38/2/6 40/3/6 
s 2
f 41/1/1 42/2/1 43/3/1 44/4/1 
s 8
f 41/4/3 44/1/3 45/2/3 46/3/3 
s 16
f 44/4/4 43/1/4 47/2/4 45/3/4 
s 32
f 43/4/5 42/1/5 48/2/5 47/3/5 
s 64
f 42/4/6 41/1/6 46/2/6 48/3/6 
s 2
f 49/1/1 50/2/1 51/3/1 52/4/1 
s 4
f 53/4/2 54/1/2 55/2/2 56/3/2 
s 8
f 49/4/3 52/1/3 54/2/3 53/3/3 
s 16
f 52/4/4 51/1/4 55/2/4 54/3/4 
s 32
f 51/4/5 50/1/5 56/2/5 55/3/5 
s 64
f 50/4/6 49/1/6 53/2/6 56/3/6 
# 40 polygons

