# 3ds Max Wavefront OBJ Exporter v0.97b - (c)2007 guruware
# File Created: 27.01.2019 00:09:51

#
# object Painting
#

v  -0.2500 -0.3750 -0.0000
v  -0.2500 0.3750 0.0000
v  0.2500 0.3750 0.0000
v  0.2500 -0.3750 -0.0000
v  -0.1500 -0.2750 0.0150
v  0.1500 -0.2750 0.0150
v  0.1500 0.2750 0.0150
v  -0.1500 0.2750 0.0150
v  0.2500 -0.3750 0.0350
v  -0.2500 -0.3750 0.0350
v  0.2500 0.3750 0.0350
v  -0.2500 0.3750 0.0350
v  0.2000 -0.3250 0.0350
v  -0.2000 -0.3250 0.0350
v  0.2000 0.3250 0.0350
v  -0.2000 0.3250 0.0350
v  0.2000 -0.3250 0.0150
v  -0.2000 -0.3250 0.0150
v  0.2000 0.3250 0.0150
v  -0.2000 0.3250 0.0150
# 20 vertices

vn 0.0000 0.0000 -1.0000
vn 0.0000 -0.0000 1.0000
vn 0.0000 -1.0000 -0.0000
vn 1.0000 0.0000 -0.0000
vn 0.0000 1.0000 0.0000
vn -1.0000 0.0000 -0.0000
# 6 vertex normals

vt 0.0020 0.0020 0.0000
vt 0.5633 0.0020 0.0000
vt 0.5633 0.3762 0.0000
vt 0.0020 0.3762 0.0000
vt 0.5864 0.2265 0.0000
vt 0.5864 0.0020 0.0000
vt 0.9980 0.0020 0.0000
vt 0.9980 0.2265 0.0000
vt 0.9606 0.7479 0.0000
vt 0.5864 0.7479 0.0000
vt 0.5864 0.7217 0.0000
vt 0.9606 0.7217 0.0000
vt 0.0020 0.8919 0.0000
vt 0.5633 0.8919 0.0000
vt 0.5633 0.9181 0.0000
vt 0.0020 0.9181 0.0000
vt 0.9606 0.8084 0.0000
vt 0.5864 0.8084 0.0000
vt 0.5864 0.7822 0.0000
vt 0.9606 0.7822 0.0000
vt 0.0020 0.8426 0.0000
vt 0.5633 0.8426 0.0000
vt 0.5633 0.8688 0.0000
vt 0.0020 0.8688 0.0000
vt 0.9606 0.2870 0.0000
vt 0.5864 0.2870 0.0000
vt 0.6238 0.2496 0.0000
vt 0.9232 0.2496 0.0000
vt 0.5633 0.8196 0.0000
vt 0.0020 0.8196 0.0000
vt 0.0394 0.7822 0.0000
vt 0.5259 0.7822 0.0000
vt 0.5115 0.3993 0.0000
vt 0.8857 0.3993 0.0000
vt 0.8483 0.4367 0.0000
vt 0.5489 0.4367 0.0000
vt 0.0020 0.7217 0.0000
vt 0.5633 0.7217 0.0000
vt 0.5259 0.7591 0.0000
vt 0.0394 0.7591 0.0000
vt 0.5758 0.6057 0.0000
vt 0.8751 0.6057 0.0000
vt 0.8751 0.6207 0.0000
vt 0.5758 0.6207 0.0000
vt 0.9980 0.4824 0.0000
vt 0.5115 0.4824 0.0000
vt 0.5115 0.4674 0.0000
vt 0.9980 0.4674 0.0000
vt 0.5758 0.6284 0.0000
vt 0.8751 0.6284 0.0000
vt 0.8751 0.6433 0.0000
vt 0.5758 0.6433 0.0000
vt 0.4885 0.9561 0.0000
vt 0.0020 0.9561 0.0000
vt 0.0020 0.9411 0.0000
vt 0.4885 0.9411 0.0000
vt 0.4885 0.3993 0.0000
vt 0.4885 0.6986 0.0000
vt 0.4511 0.6612 0.0000
vt 0.4511 0.4367 0.0000
vt 0.0020 0.6986 0.0000
vt 0.0394 0.6612 0.0000
vt 0.0020 0.3993 0.0000
vt 0.0394 0.4367 0.0000
# 64 texture coords

g Painting
s 2
f 1/1/1 2/2/1 3/3/1 4/4/1 
s 4
f 5/5/2 6/6/2 7/7/2 8/8/2 
s 8
f 1/9/3 4/10/3 9/11/3 10/12/3 
s 16
f 4/13/4 3/14/4 11/15/4 9/16/4 
s 32
f 3/17/5 2/18/5 12/19/5 11/20/5 
s 64
f 2/21/6 1/22/6 10/23/6 12/24/6 
s off
f 10/25/2 9/26/2 13/27/2 14/28/2 
f 9/29/2 11/30/2 15/31/2 13/32/2 
f 11/33/2 12/34/2 16/35/2 15/36/2 
f 12/37/2 10/38/2 14/39/2 16/40/2 
f 14/41/5 13/42/5 17/43/5 18/44/5 
f 13/45/6 15/46/6 19/47/6 17/48/6 
f 15/49/3 16/50/3 20/51/3 19/52/3 
f 16/53/4 14/54/4 18/55/4 20/56/4 
f 18/57/2 17/58/2 6/59/2 5/60/2 
f 17/58/2 19/61/2 7/62/2 6/59/2 
f 19/61/2 20/63/2 8/64/2 7/62/2 
f 20/63/2 18/57/2 5/60/2 8/64/2 
# 18 polygons

