# 3ds Max Wavefront OBJ Exporter v0.97b - (c)2007 guruware
# File Created: 26.01.2019 07:47:38

#
# object Plant1
#

v  -0.0572 0.0000 0.0572
v  -0.0572 0.0000 -0.0572
v  0.0572 0.0000 -0.0572
v  0.0572 0.0000 0.0572
v  0.0700 0.1680 0.0700
v  -0.0700 0.1680 0.0700
v  0.0700 0.1680 -0.0700
v  -0.0700 0.1680 -0.0700
v  0.0815 0.1680 0.0815
v  -0.0815 0.1680 0.0815
v  0.0815 0.1680 -0.0815
v  -0.0815 0.1680 -0.0815
v  0.0815 0.1928 0.0815
v  -0.0815 0.1928 0.0815
v  0.0815 0.1928 -0.0815
v  -0.0815 0.1928 -0.0815
v  0.0600 0.1928 0.0600
v  -0.0600 0.1928 0.0600
v  0.0600 0.1928 -0.0600
v  -0.0600 0.1928 -0.0600
v  0.0600 0.1720 0.0600
v  -0.0600 0.1720 0.0600
v  0.0600 0.1720 -0.0600
v  -0.0600 0.1720 -0.0600
v  0.0000 0.1823 -0.0000
v  -0.0242 0.1616 0.0343
v  0.0116 0.1647 0.0343
v  -0.0025 0.2910 0.0424
v  -0.0323 0.2884 0.0424
v  0.0114 0.1678 -0.0016
v  -0.0027 0.2936 0.0126
v  -0.0245 0.1647 -0.0016
v  -0.0325 0.2910 0.0126
v  -0.0204 0.3240 0.0304
v  -0.0401 0.1669 0.0067
v  0.0065 0.1710 0.0067
v  -0.0083 0.2948 -0.0193
v  -0.0470 0.2914 -0.0193
v  0.0072 0.1629 -0.0394
v  -0.0077 0.2880 -0.0576
v  -0.0394 0.1588 -0.0394
v  -0.0464 0.2846 -0.0576
v  -0.0302 0.3224 -0.0442
v  -0.0135 0.1641 0.0222
v  0.0324 0.1560 0.0222
v  0.0579 0.3232 0.0183
v  0.0198 0.3300 0.0183
v  0.0324 0.1560 -0.0243
v  0.0579 0.3232 -0.0204
v  -0.0135 0.1641 -0.0243
v  0.0198 0.3300 -0.0204
v  0.0465 0.3702 -0.0010
# 52 vertices

vn 0.0000 -1.0000 -0.0000
vn 0.0000 -0.0762 0.9971
vn 0.9971 -0.0762 -0.0000
vn 0.0000 -0.0762 -0.9971
vn -0.9971 -0.0762 -0.0000
vn 0.0000 0.0000 1.0000
vn 1.0000 0.0000 -0.0000
vn 0.0000 0.0000 -1.0000
vn -1.0000 0.0000 -0.0000
vn 0.0000 1.0000 -0.0000
vn 0.0000 0.9856 0.1694
vn 0.1694 0.9856 -0.0000
vn 0.0000 0.9856 -0.1694
vn -0.1694 0.9856 -0.0000
vn 0.0055 -0.0631 0.9980
vn 0.9938 0.1108 0.0021
vn -0.0097 0.1105 -0.9938
vn -0.9980 -0.0634 0.0021
vn -0.0287 0.3275 0.9444
vn 0.8731 0.4862 0.0357
vn -0.0425 0.4859 -0.8730
vn -0.9443 0.3272 0.0357
vn -0.0178 0.2033 0.9789
vn 0.9931 0.1176 -0.0054
vn 0.0125 -0.1425 -0.9897
vn -0.9984 -0.0567 -0.0054
vn -0.0563 0.6438 0.7631
vn 0.8172 0.5697 -0.0875
vn -0.0302 0.3450 -0.9381
vn -0.9037 0.4192 -0.0875
vn 0.0040 0.0229 0.9997
vn 0.9886 -0.1507 -0.0000
vn 0.0040 0.0229 -0.9997
vn -0.9805 0.1965 -0.0000
vn 0.0695 0.3944 0.9163
vn 0.9719 0.2353 -0.0000
vn 0.0695 0.3944 -0.9163
vn -0.8328 0.5535 -0.0000
# 38 vertex normals

vt 0.0050 0.6556 0.0000
vt 0.0050 0.4888 0.0000
vt 0.1718 0.4888 0.0000
vt 0.1718 0.6556 0.0000
vt 0.5087 0.1906 0.0000
vt 0.5087 0.0237 0.0000
vt 0.7546 0.0050 0.0000
vt 0.7546 0.2093 0.0000
vt 0.2469 0.6309 0.0000
vt 0.2469 0.4641 0.0000
vt 0.4921 0.4453 0.0000
vt 0.4921 0.6496 0.0000
vt 0.2469 0.1906 0.0000
vt 0.2469 0.0237 0.0000
vt 0.4928 0.0050 0.0000
vt 0.4928 0.2093 0.0000
vt 0.2469 0.4107 0.0000
vt 0.2469 0.2439 0.0000
vt 0.4928 0.2252 0.0000
vt 0.4928 0.4295 0.0000
vt 0.0218 0.2261 0.0000
vt 0.2261 0.2261 0.0000
vt 0.2429 0.2429 0.0000
vt 0.0050 0.2429 0.0000
vt 0.2261 0.0218 0.0000
vt 0.2429 0.0050 0.0000
vt 0.0218 0.0218 0.0000
vt 0.0050 0.0050 0.0000
vt 0.7466 0.4289 0.0000
vt 0.5087 0.4289 0.0000
vt 0.5087 0.3927 0.0000
vt 0.7466 0.3927 0.0000
vt 0.4848 0.9832 0.0000
vt 0.2469 0.9832 0.0000
vt 0.2469 0.9470 0.0000
vt 0.4848 0.9470 0.0000
vt 0.4848 0.9352 0.0000
vt 0.2469 0.9352 0.0000
vt 0.2469 0.8990 0.0000
vt 0.4848 0.8990 0.0000
vt 0.7459 0.8785 0.0000
vt 0.5079 0.8785 0.0000
vt 0.5079 0.8423 0.0000
vt 0.7459 0.8423 0.0000
vt 0.0050 0.2469 0.0000
vt 0.2429 0.2469 0.0000
vt 0.2116 0.2782 0.0000
vt 0.0364 0.2782 0.0000
vt 0.2429 0.4848 0.0000
vt 0.2116 0.4534 0.0000
vt 0.0050 0.4848 0.0000
vt 0.0364 0.4534 0.0000
vt 0.7585 0.3927 0.0000
vt 0.9337 0.3927 0.0000
vt 0.9337 0.4232 0.0000
vt 0.7585 0.4232 0.0000
vt 0.0050 0.6595 0.0000
vt 0.1802 0.6595 0.0000
vt 0.1802 0.6900 0.0000
vt 0.0050 0.6900 0.0000
vt 0.7704 0.0050 0.0000
vt 0.9456 0.0050 0.0000
vt 0.9456 0.0354 0.0000
vt 0.7704 0.0354 0.0000
vt 0.7593 0.7731 0.0000
vt 0.9345 0.7731 0.0000
vt 0.9345 0.8036 0.0000
vt 0.7593 0.8036 0.0000
vt 0.2044 0.0292 0.0000
vt 0.2044 0.2044 0.0000
vt 0.1168 0.1168 0.0000
vt 0.0292 0.2044 0.0000
vt 0.0292 0.0292 0.0000
vt 0.7555 0.7456 0.0000
vt 0.7560 0.6930 0.0000
vt 0.9417 0.6995 0.0000
vt 0.9412 0.7431 0.0000
vt 0.7599 0.6615 0.0000
vt 0.7604 0.6089 0.0000
vt 0.9461 0.6154 0.0000
vt 0.9456 0.6591 0.0000
vt 0.7434 0.7739 0.0000
vt 0.7420 0.8264 0.0000
vt 0.5564 0.8168 0.0000
vt 0.5577 0.7731 0.0000
vt 0.4824 0.8306 0.0000
vt 0.4809 0.8831 0.0000
vt 0.2954 0.8734 0.0000
vt 0.2966 0.8297 0.0000
vt 0.9906 0.7218 0.0000
vt 0.9950 0.6378 0.0000
vt 0.5079 0.7936 0.0000
vt 0.2469 0.8501 0.0000
vt 0.5079 0.7613 0.0000
vt 0.5088 0.6930 0.0000
vt 0.6945 0.7011 0.0000
vt 0.6938 0.7578 0.0000
vt 0.2469 0.8178 0.0000
vt 0.2481 0.7496 0.0000
vt 0.4337 0.7585 0.0000
vt 0.4327 0.8153 0.0000
vt 0.7440 0.6089 0.0000
vt 0.7421 0.6772 0.0000
vt 0.5566 0.6663 0.0000
vt 0.5582 0.6096 0.0000
vt 0.4839 0.6655 0.0000
vt 0.4825 0.7337 0.0000
vt 0.2972 0.7240 0.0000
vt 0.2983 0.6672 0.0000
vt 0.7436 0.7301 0.0000
vt 0.4827 0.7877 0.0000
vt 0.5079 0.6365 0.0000
vt 0.2469 0.6949 0.0000
vt 0.5079 0.5970 0.0000
vt 0.5092 0.5291 0.0000
vt 0.7558 0.5392 0.0000
vt 0.7548 0.5957 0.0000
vt 0.5087 0.2931 0.0000
vt 0.5087 0.2252 0.0000
vt 0.7555 0.2309 0.0000
vt 0.7555 0.2874 0.0000
vt 0.8207 0.3089 0.0000
vt 0.8192 0.3769 0.0000
vt 0.5726 0.3659 0.0000
vt 0.5739 0.3094 0.0000
vt 0.5079 0.5133 0.0000
vt 0.5079 0.4453 0.0000
vt 0.7548 0.4511 0.0000
vt 0.7548 0.5075 0.0000
vt 0.8199 0.5686 0.0000
vt 0.8207 0.2591 0.0000
vt 0.5087 0.3363 0.0000
vt 0.8200 0.4793 0.0000
# 133 texture coords

g Plant1
s 2
f 1/1/1 2/2/1 3/3/1 4/4/1 
s 8
f 1/5/2 4/6/2 5/7/2 6/8/2 
s 16
f 4/9/3 3/10/3 7/11/3 5/12/3 
s 32
f 3/13/4 2/14/4 8/15/4 7/16/4 
s 64
f 2/17/5 1/18/5 6/19/5 8/20/5 
s off
f 6/21/1 5/22/1 9/23/1 10/24/1 
f 5/22/1 7/25/1 11/26/1 9/23/1 
f 7/25/1 8/27/1 12/28/1 11/26/1 
f 8/27/1 6/21/1 10/24/1 12/28/1 
f 10/29/6 9/30/6 13/31/6 14/32/6 
f 9/33/7 11/34/7 15/35/7 13/36/7 
f 11/37/8 12/38/8 16/39/8 15/40/8 
f 12/41/9 10/42/9 14/43/9 16/44/9 
f 14/45/10 13/46/10 17/47/10 18/48/10 
f 13/46/10 15/49/10 19/50/10 17/47/10 
f 15/49/10 16/51/10 20/52/10 19/50/10 
f 16/51/10 14/45/10 18/48/10 20/52/10 
f 18/53/8 17/54/8 21/55/8 22/56/8 
f 17/57/9 19/58/9 23/59/9 21/60/9 
f 19/61/6 20/62/6 24/63/6 23/64/6 
f 20/65/7 18/66/7 22/67/7 24/68/7 
f 22/69/11 21/70/11 25/71/11 
f 21/70/12 23/72/12 25/71/12 
f 23/72/13 24/73/13 25/71/13 
f 24/73/14 22/69/14 25/71/14 
s 8
f 26/74/15 27/75/15 28/76/15 29/77/15 
s 16
f 27/78/16 30/79/16 31/80/16 28/81/16 
s 32
f 30/82/17 32/83/17 33/84/17 31/85/17 
s 64
f 32/86/18 26/87/18 29/88/18 33/89/18 
s off
f 29/77/19 28/76/19 34/90/19 
f 28/81/20 31/80/20 34/91/20 
f 31/85/21 33/84/21 34/92/21 
f 33/89/22 29/88/22 34/93/22 
s 8
f 35/94/23 36/95/23 37/96/23 38/97/23 
s 16
f 36/98/24 39/99/24 40/100/24 37/101/24 
s 32
f 39/102/25 41/103/25 42/104/25 40/105/25 
s 64
f 41/106/26 35/107/26 38/108/26 42/109/26 
s off
f 38/97/27 37/96/27 43/110/27 
f 37/101/28 40/100/28 43/111/28 
f 40/105/29 42/104/29 43/112/29 
f 42/109/30 38/108/30 43/113/30 
s 8
f 44/114/31 45/115/31 46/116/31 47/117/31 
s 16
f 45/118/32 48/119/32 49/120/32 46/121/32 
s 32
f 48/122/33 50/123/33 51/124/33 49/125/33 
s 64
f 50/126/34 44/127/34 47/128/34 51/129/34 
s off
f 47/117/35 46/116/35 52/130/35 
f 46/121/36 49/120/36 52/131/36 
f 49/125/37 51/124/37 52/132/37 
f 51/129/38 47/128/38 52/133/38 
# 33 polygons - 16 triangles

