# 3ds Max Wavefront OBJ Exporter v0.97b - (c)2007 guruware
# File Created: 26.01.2019 10:48:25

#
# object Speaker
#

v  0.0000 0.0000 -0.1250
v  -0.0000 0.0000 0.0875
v  -0.1250 0.0000 0.0875
v  -0.1250 0.0000 -0.1250
v  -0.1250 1.5000 0.0875
v  -0.0000 1.5000 0.0875
v  0.0000 1.5000 -0.1250
v  -0.1250 1.5000 -0.1250
v  -0.1250 0.4343 0.0875
v  -0.1250 0.4343 -0.1250
v  -0.0000 0.0000 0.1250
v  -0.0000 0.4343 0.1250
v  -0.1250 0.4343 0.1250
v  -0.1250 0.0000 0.1250
v  0.1250 0.0000 0.0875
v  0.1250 0.4343 0.0875
v  0.1250 0.4343 0.1250
v  0.1250 0.0000 0.1250
v  0.0000 0.4343 -0.1250
v  0.1250 0.4343 -0.1250
v  0.1250 0.0000 -0.1250
v  -0.1250 1.5000 0.1250
v  -0.0000 1.5000 0.1250
v  -0.1250 0.8339 0.0875
v  -0.1250 0.8339 -0.1250
v  -0.1250 0.7007 -0.1250
v  -0.1250 0.7007 0.0875
v  0.0750 0.7507 0.1250
v  -0.0000 0.8339 0.1010
v  -0.0000 0.7274 0.1250
v  0.1250 0.8339 0.0875
v  0.1250 0.8339 0.1250
v  0.1250 0.7007 0.1250
v  0.1250 0.7007 0.0875
v  0.0000 0.8339 -0.1250
v  0.0000 0.7007 -0.1250
v  -0.1250 0.8339 0.1250
v  -0.1250 0.7007 0.1250
v  0.1250 0.8339 -0.1250
v  0.1250 0.7007 -0.1250
v  -0.1250 1.3668 0.0875
v  -0.1250 1.3668 -0.1250
v  -0.1250 1.2336 -0.1250
v  -0.1250 1.2336 0.0875
v  -0.1250 1.1004 0.0875
v  -0.1250 1.1004 -0.1250
v  -0.1250 0.9672 -0.1250
v  -0.1250 0.9672 0.0875
v  -0.1250 0.5675 -0.1250
v  -0.1250 0.5675 0.0875
v  0.0750 1.2836 0.1250
v  -0.0000 1.3668 0.1010
v  -0.0000 1.2586 0.1250
v  0.0750 1.0172 0.1250
v  -0.0000 1.1004 0.1010
v  -0.0000 0.9922 0.1250
v  -0.0750 0.6507 0.1250
v  -0.0000 0.5675 0.1010
v  -0.0000 0.6757 0.1250
v  0.1250 1.3668 0.0875
v  0.1250 1.3668 0.1250
v  0.1250 1.2336 0.1250
v  0.1250 1.2336 0.0875
v  0.1250 1.1004 0.0875
v  0.1250 1.1004 0.1250
v  0.1250 0.9672 0.1250
v  0.1250 0.9672 0.0875
v  0.1250 0.5675 0.1250
v  0.1250 0.5675 0.0875
v  0.0000 1.3668 -0.1250
v  0.0000 1.2336 -0.1250
v  0.0000 1.1004 -0.1250
v  0.0000 0.9672 -0.1250
v  0.1250 0.5675 -0.1250
v  0.0000 0.5675 -0.1250
v  -0.1250 1.3668 0.1250
v  -0.1250 1.2336 0.1250
v  -0.1250 1.1004 0.1250
v  -0.1250 0.9672 0.1250
v  -0.1250 0.5675 0.1250
v  0.1250 1.3668 -0.1250
v  0.1250 1.2336 -0.1250
v  0.1250 1.1004 -0.1250
v  0.1250 0.9672 -0.1250
v  0.0960 0.8339 0.1250
v  -0.0000 0.9672 0.1250
v  -0.0000 0.9405 0.1250
v  0.0750 0.9172 0.1250
v  -0.0960 0.8339 0.1250
v  -0.0750 0.9172 0.1250
v  -0.0000 0.7007 0.1250
v  -0.0750 0.7507 0.1250
v  0.0975 1.3668 0.1250
v  -0.0000 1.4750 0.1250
v  0.0750 1.4500 0.1250
v  0.1250 1.5000 0.1250
v  -0.0975 1.3668 0.1250
v  -0.0750 1.4500 0.1250
v  -0.0000 1.2336 0.1250
v  -0.0750 1.2836 0.1250
v  0.0975 1.1004 0.1250
v  -0.0000 1.2085 0.1250
v  0.0750 1.1836 0.1250
v  -0.0975 1.1004 0.1250
v  -0.0750 1.1836 0.1250
v  -0.0750 1.0172 0.1250
v  -0.0975 0.5675 0.1250
v  -0.0000 0.4593 0.1250
v  -0.0750 0.4843 0.1250
v  0.0975 0.5675 0.1250
v  0.0750 0.4843 0.1250
v  0.0750 0.6507 0.1250
v  0.1250 1.5000 0.0875
v  0.1250 1.5000 -0.1250
# 114 vertices

vn 0.0000 -1.0000 -0.0000
vn 0.0000 1.0000 -0.0000
vn -1.0000 0.0000 -0.0000
vn -0.0000 0.0000 1.0000
vn 1.0000 0.0000 0.0000
vn 0.0000 0.0000 -1.0000
vn -0.0682 0.2191 0.9733
vn -0.0719 0.2160 0.9738
vn 0.0719 -0.2160 0.9738
vn -0.0000 -0.0000 1.0000
vn 0.0000 -0.0000 1.0000
vn 0.0000 0.0000 1.0000
vn -0.2419 -0.0612 0.9684
vn -0.2384 -0.0645 0.9690
vn 0.2384 0.0645 0.9690
vn 0.0682 0.2191 0.9733
vn 0.0719 0.2160 0.9738
vn -0.0719 -0.2160 0.9738
vn 0.0682 -0.2191 0.9733
vn 0.2384 -0.0645 0.9690
vn -0.2384 0.0645 0.9690
vn 0.2419 -0.0612 0.9684
vn -0.0682 -0.2191 0.9733
vn -0.2419 0.0612 0.9684
vn 0.2419 0.0612 0.9684
# 25 vertex normals

vt 0.0100 0.8783 0.0000
vt 0.1488 0.8783 0.0000
vt 0.1488 0.9599 0.0000
vt 0.0100 0.9599 0.0000
vt 0.2961 0.7966 0.0000
vt 0.2961 0.8783 0.0000
vt 0.1573 0.8783 0.0000
vt 0.1573 0.7966 0.0000
vt 0.0100 0.4278 0.0000
vt 0.2937 0.4278 0.0000
vt 0.2937 0.5666 0.0000
vt 0.0100 0.5666 0.0000
vt 0.0100 0.6816 0.0000
vt 0.2937 0.6816 0.0000
vt 0.2937 0.7633 0.0000
vt 0.0100 0.7633 0.0000
vt 0.0100 0.3455 0.0000
vt 0.2937 0.3455 0.0000
vt 0.2937 0.3700 0.0000
vt 0.0100 0.3700 0.0000
vt 0.0100 0.0917 0.0000
vt 0.2937 0.0917 0.0000
vt 0.2937 0.1733 0.0000
vt 0.0100 0.1733 0.0000
vt 0.3306 0.7966 0.0000
vt 0.3306 0.8783 0.0000
vt 0.3061 0.8783 0.0000
vt 0.3061 0.7966 0.0000
vt 0.3645 0.7966 0.0000
vt 0.3645 0.8783 0.0000
vt 0.3400 0.8783 0.0000
vt 0.3400 0.7966 0.0000
vt 0.0100 0.3827 0.0000
vt 0.2937 0.3827 0.0000
vt 0.2937 0.4072 0.0000
vt 0.0100 0.4072 0.0000
vt 0.0100 0.1881 0.0000
vt 0.2937 0.1881 0.0000
vt 0.2937 0.3269 0.0000
vt 0.0100 0.3269 0.0000
vt 0.5548 0.4278 0.0000
vt 0.5548 0.5666 0.0000
vt 0.4678 0.5666 0.0000
vt 0.4678 0.4278 0.0000
vt 0.5443 0.7892 0.0000
vt 0.5987 0.8382 0.0000
vt 0.5291 0.8382 0.0000
vt 0.5548 0.3455 0.0000
vt 0.5548 0.3700 0.0000
vt 0.4678 0.3700 0.0000
vt 0.4678 0.3455 0.0000
vt 0.5548 0.0100 0.0000
vt 0.5548 0.0917 0.0000
vt 0.4678 0.0917 0.0000
vt 0.4678 0.0100 0.0000
vt 0.5548 0.3827 0.0000
vt 0.5548 0.4072 0.0000
vt 0.4678 0.4072 0.0000
vt 0.4678 0.3827 0.0000
vt 0.5548 0.1881 0.0000
vt 0.5548 0.3269 0.0000
vt 0.4678 0.3269 0.0000
vt 0.4678 0.1881 0.0000
vt 0.9030 0.4278 0.0000
vt 0.9030 0.5666 0.0000
vt 0.8159 0.5666 0.0000
vt 0.8159 0.4278 0.0000
vt 0.7289 0.4278 0.0000
vt 0.7289 0.5666 0.0000
vt 0.6419 0.5666 0.0000
vt 0.6419 0.4278 0.0000
vt 0.3808 0.5666 0.0000
vt 0.3808 0.4278 0.0000
vt 0.8352 0.7960 0.0000
vt 0.8896 0.8450 0.0000
vt 0.8189 0.8450 0.0000
vt 0.6929 0.8642 0.0000
vt 0.7472 0.9132 0.0000
vt 0.6766 0.9132 0.0000
vt 0.5148 0.9700 0.0000
vt 0.4604 0.9210 0.0000
vt 0.5311 0.9210 0.0000
vt 0.9030 0.3455 0.0000
vt 0.9030 0.3700 0.0000
vt 0.8159 0.3700 0.0000
vt 0.8159 0.3455 0.0000
vt 0.7289 0.3455 0.0000
vt 0.7289 0.3700 0.0000
vt 0.6419 0.3700 0.0000
vt 0.6419 0.3455 0.0000
vt 0.3808 0.3700 0.0000
vt 0.3808 0.3455 0.0000
vt 0.9030 0.0100 0.0000
vt 0.9030 0.0917 0.0000
vt 0.8159 0.0917 0.0000
vt 0.8159 0.0100 0.0000
vt 0.7289 0.0100 0.0000
vt 0.7289 0.0917 0.0000
vt 0.6419 0.0917 0.0000
vt 0.6419 0.0100 0.0000
vt 0.3808 0.1733 0.0000
vt 0.3808 0.0917 0.0000
vt 0.4678 0.1733 0.0000
vt 0.9030 0.3827 0.0000
vt 0.9030 0.4072 0.0000
vt 0.8159 0.4072 0.0000
vt 0.8159 0.3827 0.0000
vt 0.7289 0.3827 0.0000
vt 0.7289 0.4072 0.0000
vt 0.6419 0.4072 0.0000
vt 0.6419 0.3827 0.0000
vt 0.3808 0.4072 0.0000
vt 0.3808 0.3827 0.0000
vt 0.9030 0.1881 0.0000
vt 0.9030 0.3269 0.0000
vt 0.8159 0.3269 0.0000
vt 0.8159 0.1881 0.0000
vt 0.7289 0.1881 0.0000
vt 0.7289 0.3269 0.0000
vt 0.6419 0.3269 0.0000
vt 0.6419 0.1881 0.0000
vt 0.3808 0.3269 0.0000
vt 0.3808 0.1881 0.0000
vt 0.5548 0.5999 0.0000
vt 0.5548 0.6189 0.0000
vt 0.5005 0.6326 0.0000
vt 0.4678 0.5999 0.0000
vt 0.6419 0.6816 0.0000
vt 0.6245 0.6816 0.0000
vt 0.6092 0.6326 0.0000
vt 0.6419 0.5999 0.0000
vt 0.5548 0.7633 0.0000
vt 0.5548 0.7444 0.0000
vt 0.6092 0.7306 0.0000
vt 0.6419 0.7633 0.0000
vt 0.4678 0.6816 0.0000
vt 0.4852 0.6816 0.0000
vt 0.5005 0.7306 0.0000
vt 0.4678 0.7633 0.0000
vt 0.9030 0.5999 0.0000
vt 0.9030 0.6179 0.0000
vt 0.8486 0.6326 0.0000
vt 0.8159 0.5999 0.0000
vt 0.9900 0.6816 0.0000
vt 0.9736 0.6816 0.0000
vt 0.9573 0.6326 0.0000
vt 0.9900 0.5999 0.0000
vt 0.9030 0.7633 0.0000
vt 0.9030 0.7453 0.0000
vt 0.9573 0.7306 0.0000
vt 0.9900 0.7633 0.0000
vt 0.8159 0.6816 0.0000
vt 0.8323 0.6816 0.0000
vt 0.8486 0.7306 0.0000
vt 0.8159 0.7633 0.0000
vt 0.7289 0.5999 0.0000
vt 0.7289 0.6179 0.0000
vt 0.6745 0.6326 0.0000
vt 0.7996 0.6816 0.0000
vt 0.7833 0.6326 0.0000
vt 0.7289 0.7633 0.0000
vt 0.7289 0.7453 0.0000
vt 0.7833 0.7306 0.0000
vt 0.6582 0.6816 0.0000
vt 0.6745 0.7306 0.0000
vt 0.3808 0.7633 0.0000
vt 0.3808 0.7453 0.0000
vt 0.4351 0.7306 0.0000
vt 0.3101 0.6816 0.0000
vt 0.3264 0.7306 0.0000
vt 0.3808 0.5999 0.0000
vt 0.3808 0.6179 0.0000
vt 0.3264 0.6326 0.0000
vt 0.2937 0.5999 0.0000
vt 0.4514 0.6816 0.0000
vt 0.4351 0.6326 0.0000
vt 0.5987 0.7755 0.0000
vt 0.6531 0.7892 0.0000
vt 0.9900 0.4278 0.0000
vt 0.9900 0.5666 0.0000
vt 0.8896 0.7813 0.0000
vt 0.9439 0.7960 0.0000
vt 0.7472 0.8495 0.0000
vt 0.8016 0.8642 0.0000
vt 0.4604 0.9847 0.0000
vt 0.4061 0.9700 0.0000
vt 0.9900 0.3455 0.0000
vt 0.9900 0.3700 0.0000
vt 0.9900 0.0100 0.0000
vt 0.9900 0.0917 0.0000
vt 0.9900 0.3827 0.0000
vt 0.9900 0.4072 0.0000
vt 0.9900 0.1881 0.0000
vt 0.9900 0.3269 0.0000
vt 0.0100 0.7966 0.0000
vt 0.1488 0.7966 0.0000
vt 0.2961 0.9599 0.0000
vt 0.1573 0.9599 0.0000
vt 0.0100 0.5999 0.0000
vt 0.0100 0.0100 0.0000
vt 0.2937 0.0100 0.0000
vt 0.3306 0.9599 0.0000
vt 0.3061 0.9599 0.0000
vt 0.3645 0.9599 0.0000
vt 0.3400 0.9599 0.0000
vt 0.5443 0.8872 0.0000
vt 0.5548 0.1733 0.0000
vt 0.8352 0.8940 0.0000
vt 0.6929 0.9622 0.0000
vt 0.5148 0.8720 0.0000
vt 0.9030 0.1733 0.0000
vt 0.8159 0.1733 0.0000
vt 0.7289 0.1733 0.0000
vt 0.6419 0.1733 0.0000
vt 0.3808 0.0100 0.0000
vt 0.6683 0.8382 0.0000
vt 0.6531 0.8872 0.0000
vt 0.9602 0.8450 0.0000
vt 0.9439 0.8940 0.0000
vt 0.8179 0.9132 0.0000
vt 0.8016 0.9622 0.0000
vt 0.3898 0.9210 0.0000
vt 0.4061 0.8720 0.0000
vt 0.9900 0.1733 0.0000
vt 0.8896 0.9087 0.0000
vt 0.7472 0.9769 0.0000
vt 0.5987 0.9010 0.0000
vt 0.4604 0.8573 0.0000
# 228 texture coords

g Speaker
s off
f 1/1/1 2/2/1 3/3/1 4/4/1 
f 5/5/2 6/6/2 7/7/2 8/8/2 
f 3/9/3 9/10/3 10/11/3 4/12/3 
f 11/13/4 12/14/4 13/15/4 14/16/4 
f 15/17/5 16/18/5 17/19/5 18/20/5 
f 1/21/6 19/22/6 20/23/6 21/24/6 
f 18/25/1 11/26/1 2/27/1 15/28/1 
f 22/29/2 23/30/2 6/31/2 5/32/2 
f 14/33/3 13/34/3 9/35/3 3/36/3 
f 21/37/5 20/38/5 16/39/5 15/40/5 
f 24/41/3 25/42/3 26/43/3 27/44/3 
f 28/45/7 29/46/7 30/47/7 
f 31/48/5 32/49/5 33/50/5 34/51/5 
f 25/52/6 35/53/6 36/54/6 26/55/6 
f 37/56/3 24/57/3 27/58/3 38/59/3 
f 39/60/5 31/61/5 34/62/5 40/63/5 
f 41/64/3 42/65/3 43/66/3 44/67/3 
f 45/68/3 46/69/3 47/70/3 48/71/3 
f 49/72/3 50/73/3 27/44/3 26/43/3 
f 51/74/8 52/75/8 53/76/8 
f 54/77/8 55/78/8 56/79/8 
f 57/80/9 58/81/9 59/82/9 
f 60/83/5 61/84/5 62/85/5 63/86/5 
f 64/87/5 65/88/5 66/89/5 67/90/5 
f 68/91/5 69/92/5 34/51/5 33/50/5 
f 42/93/6 70/94/6 71/95/6 43/96/6 
f 46/97/6 72/98/6 73/99/6 47/100/6 
f 74/101/6 75/102/6 36/54/6 40/103/6 
f 76/104/3 41/105/3 44/106/3 77/107/3 
f 78/108/3 45/109/3 48/110/3 79/111/3 
f 50/112/3 80/113/3 38/59/3 27/58/3 
f 81/114/5 60/115/5 63/116/5 82/117/5 
f 83/118/5 64/119/5 67/120/5 84/121/5 
f 69/122/5 74/123/5 40/63/5 34/62/5 
f 32/124/4 85/125/4 28/126/4 33/127/4 
f 86/128/10 87/129/10 88/130/10 66/131/10 
f 37/132/11 89/133/11 90/134/11 79/135/11 
f 91/136/12 30/137/12 92/138/12 38/139/12 
f 61/140/4 93/141/4 51/142/4 62/143/4 
f 23/144/4 94/145/4 95/146/4 96/147/4 
f 76/148/4 97/149/4 98/150/4 22/151/4 
f 99/152/10 53/153/10 100/154/10 77/155/10 
f 65/156/11 101/157/11 54/158/11 66/131/11 
f 99/152/4 102/159/4 103/160/4 62/143/4 
f 78/161/4 104/162/4 105/163/4 77/155/4 
f 86/128/10 56/164/10 106/165/10 79/135/10 
f 80/166/11 107/167/11 57/168/11 38/139/11 
f 12/14/4 108/169/4 109/170/4 13/15/4 
f 68/171/4 110/172/4 111/173/4 17/174/4 
f 91/136/10 59/175/10 112/176/10 33/127/10 
f 48/71/3 47/70/3 25/42/3 24/41/3 
f 85/177/13 88/178/13 29/46/13 
f 67/90/5 66/89/5 32/49/5 31/48/5 
f 47/100/6 73/99/6 35/53/6 25/52/6 
f 79/111/3 48/110/3 24/57/3 37/56/3 
f 84/121/5 67/120/5 31/61/5 39/60/5 
f 5/179/3 8/180/3 42/65/3 41/64/3 
f 44/67/3 43/66/3 46/69/3 45/68/3 
f 10/11/3 9/10/3 50/73/3 49/72/3 
f 93/181/14 95/182/14 52/75/14 
f 101/183/14 103/184/14 55/78/14 
f 107/185/15 109/186/15 58/81/15 
f 113/187/5 96/188/5 61/84/5 60/83/5 
f 63/86/5 62/85/5 65/88/5 64/87/5 
f 17/19/5 16/18/5 69/92/5 68/91/5 
f 8/189/6 7/190/6 70/94/6 42/93/6 
f 43/96/6 71/95/6 72/98/6 46/97/6 
f 20/23/6 19/22/6 75/102/6 74/101/6 
f 22/191/3 5/192/3 41/105/3 76/104/3 
f 77/107/3 44/106/3 45/109/3 78/108/3 
f 9/35/3 13/34/3 80/113/3 50/112/3 
f 114/193/5 113/194/5 60/115/5 81/114/5 
f 82/117/5 63/116/5 64/119/5 83/118/5 
f 16/39/5 20/38/5 74/123/5 69/122/5 
f 32/124/10 66/131/10 88/130/10 85/125/10 
f 37/132/12 38/139/12 92/138/12 89/133/12 
f 61/140/4 96/147/4 95/146/4 93/141/4 
f 76/148/4 77/155/4 100/154/4 97/149/4 
f 65/156/12 62/143/12 103/160/12 101/157/12 
f 78/161/10 79/135/10 106/165/10 104/162/10 
f 80/166/12 13/15/12 109/170/12 107/167/12 
f 68/171/10 33/127/10 112/176/10 110/172/10 
f 21/195/1 15/196/1 2/2/1 1/1/1 
f 113/197/2 114/198/2 7/7/2 6/6/2 
f 18/199/4 17/174/4 12/14/4 11/13/4 
f 4/200/6 10/201/6 19/22/6 1/21/6 
f 14/202/1 3/203/1 2/27/1 11/26/1 
f 96/204/2 113/205/2 6/31/2 23/30/2 
f 29/46/16 92/206/16 30/47/16 
f 39/207/6 40/103/6 36/54/6 35/53/6 
f 52/75/17 100/208/17 53/76/17 
f 55/78/17 106/209/17 56/79/17 
f 58/81/18 112/210/18 59/82/18 
f 81/211/6 82/212/6 71/95/6 70/94/6 
f 83/213/6 84/214/6 73/99/6 72/98/6 
f 49/215/6 26/55/6 36/54/6 75/102/6 
f 86/128/11 79/135/11 90/134/11 87/129/11 
f 91/136/4 33/127/4 28/126/4 30/137/4 
f 23/144/4 22/151/4 98/150/4 94/145/4 
f 99/152/11 62/143/11 51/142/11 53/153/11 
f 99/152/4 77/155/4 105/163/4 102/159/4 
f 86/128/11 66/131/11 54/158/11 56/164/11 
f 12/14/4 17/174/4 111/173/4 108/169/4 
f 91/136/11 38/139/11 57/168/11 59/175/11 
f 87/216/19 90/217/19 29/46/19 
f 84/214/6 39/207/6 35/53/6 73/99/6 
f 94/218/9 98/219/9 52/75/9 
f 102/220/9 105/221/9 55/78/9 
f 108/222/8 111/223/8 58/81/8 
f 114/224/6 81/211/6 70/94/6 7/190/6 
f 82/212/6 83/213/6 72/98/6 71/95/6 
f 10/201/6 49/215/6 75/102/6 19/22/6 
f 98/219/20 97/225/20 52/75/20 
f 95/182/18 94/218/18 52/75/18 
f 51/74/21 93/181/21 52/75/21 
f 52/75/15 97/225/15 100/208/15 
f 105/221/20 104/226/20 55/78/20 
f 103/184/18 102/220/18 55/78/18 
f 54/77/21 101/183/21 55/78/21 
f 55/78/15 104/226/15 106/209/15 
f 90/217/22 89/227/22 29/46/22 
f 88/178/23 87/216/23 29/46/23 
f 28/45/24 85/177/24 29/46/24 
f 29/46/25 89/227/25 92/206/25 
f 57/80/20 107/185/20 58/81/20 
f 58/81/14 110/228/14 112/210/14 
f 111/223/21 110/228/21 58/81/21 
f 109/186/17 108/222/17 58/81/17 
# 96 polygons - 32 triangles

