# 3ds Max Wavefront OBJ Exporter v0.97b - (c)2007 guruware
# File Created: 26.01.2019 18:36:55

#
# object Box013
#

v  -0.2121 0.0000 0.0000
v  -0.0000 0.0000 -0.2121
v  0.2121 0.0000 -0.0000
v  0.0000 0.0000 0.2121
v  0.0000 0.0500 0.2121
v  -0.2121 0.0500 0.0000
v  0.2121 0.0500 -0.0000
v  -0.0000 0.0500 -0.2121
v  0.0000 0.0500 0.0382
v  -0.0382 0.0500 0.0000
v  0.0382 0.0500 -0.0000
v  -0.0000 0.0500 -0.0382
v  0.0000 1.2500 0.0382
v  -0.0382 1.2500 0.0000
v  0.0382 1.2500 -0.0000
v  -0.0000 1.2500 -0.0382
v  0.0000 1.2500 0.2698
v  -0.2698 1.2500 -0.0000
v  0.2698 1.2500 -0.0000
v  0.0000 1.2500 -0.2698
v  -0.0559 1.0425 -0.0770
v  -0.0770 1.0425 -0.0559
v  -0.0981 1.0425 -0.0770
v  -0.0770 1.0425 -0.0981
v  0.0000 1.6208 0.1681
v  -0.1681 1.6208 -0.0000
v  0.1681 1.6208 -0.0000
v  -0.0000 1.6208 -0.1681
v  -0.0770 1.2500 -0.0559
v  -0.0559 1.2500 -0.0770
v  -0.0981 1.2500 -0.0770
v  -0.0770 1.2500 -0.0981
# 32 vertices

vn 0.0000 -1.0000 -0.0000
vn 0.0000 0.0000 1.0000
vn 1.0000 0.0000 -0.0000
vn 0.0000 0.0000 -1.0000
vn -1.0000 0.0000 -0.0000
vn 0.0000 1.0000 -0.0000
vn -0.0000 0.0000 -1.0000
vn -1.0000 0.0000 0.0000
vn -0.0000 0.1904 0.9817
vn 0.9817 0.1904 0.0000
vn 0.0000 0.1904 -0.9817
vn -0.9817 0.1904 -0.0000
# 12 vertex normals

vt 0.4045 0.3539 0.0000
vt 0.4045 0.2076 0.0000
vt 0.5509 0.2076 0.0000
vt 0.5509 0.3539 0.0000
vt 0.3481 0.6271 0.0000
vt 0.2017 0.6271 0.0000
vt 0.2017 0.6027 0.0000
vt 0.3481 0.6027 0.0000
vt 0.5509 0.6236 0.0000
vt 0.4045 0.6236 0.0000
vt 0.4045 0.5992 0.0000
vt 0.5509 0.5992 0.0000
vt 0.7028 0.2320 0.0000
vt 0.5564 0.2320 0.0000
vt 0.5564 0.2076 0.0000
vt 0.7028 0.2076 0.0000
vt 0.1564 0.3780 0.0000
vt 0.0100 0.3780 0.0000
vt 0.0100 0.3536 0.0000
vt 0.1564 0.3536 0.0000
vt 0.0100 0.2017 0.0000
vt 0.1564 0.2017 0.0000
vt 0.0963 0.2617 0.0000
vt 0.0700 0.2617 0.0000
vt 0.1564 0.3481 0.0000
vt 0.0963 0.2881 0.0000
vt 0.0100 0.3481 0.0000
vt 0.0700 0.2881 0.0000
vt 0.4045 0.4800 0.0000
vt 0.4045 0.4536 0.0000
vt 0.9900 0.4536 0.0000
vt 0.9900 0.4800 0.0000
vt 0.4045 0.5770 0.0000
vt 0.4045 0.5507 0.0000
vt 0.9900 0.5507 0.0000
vt 0.9900 0.5770 0.0000
vt 0.4045 0.4315 0.0000
vt 0.4045 0.4051 0.0000
vt 0.9900 0.4051 0.0000
vt 0.9900 0.4315 0.0000
vt 0.4045 0.5285 0.0000
vt 0.4045 0.5022 0.0000
vt 0.9900 0.5022 0.0000
vt 0.9900 0.5285 0.0000
vt 0.0899 0.1162 0.0000
vt 0.1162 0.1162 0.0000
vt 0.1962 0.1962 0.0000
vt 0.0100 0.1962 0.0000
vt 0.1162 0.0899 0.0000
vt 0.1962 0.0100 0.0000
vt 0.0899 0.0899 0.0000
vt 0.0100 0.0100 0.0000
vt 0.1800 0.2558 0.0000
vt 0.1945 0.2558 0.0000
vt 0.1945 0.2704 0.0000
vt 0.1800 0.2704 0.0000
vt 0.3879 0.5860 0.0000
vt 0.2017 0.5860 0.0000
vt 0.2368 0.4051 0.0000
vt 0.3528 0.4051 0.0000
vt 0.5907 0.1909 0.0000
vt 0.4045 0.1909 0.0000
vt 0.4396 0.0100 0.0000
vt 0.5556 0.0100 0.0000
vt 0.3879 0.1909 0.0000
vt 0.2017 0.1909 0.0000
vt 0.2368 0.0100 0.0000
vt 0.3528 0.0100 0.0000
vt 0.3879 0.3885 0.0000
vt 0.2017 0.3885 0.0000
vt 0.2368 0.2076 0.0000
vt 0.3528 0.2076 0.0000
vt 0.6073 0.0100 0.0000
vt 0.7233 0.0100 0.0000
vt 0.7233 0.1260 0.0000
vt 0.6073 0.1260 0.0000
vt 0.0572 0.1104 0.0000
vt 0.0572 0.0958 0.0000
vt 0.0427 0.1104 0.0000
vt 0.0427 0.0958 0.0000
vt 0.7085 0.1426 0.0000
vt 0.7085 0.1572 0.0000
vt 0.6073 0.1572 0.0000
vt 0.6073 0.1426 0.0000
vt 0.3029 0.6437 0.0000
vt 0.3029 0.6583 0.0000
vt 0.2017 0.6583 0.0000
vt 0.2017 0.6437 0.0000
vt 0.5057 0.3595 0.0000
vt 0.5057 0.3740 0.0000
vt 0.4045 0.3740 0.0000
vt 0.4045 0.3595 0.0000
vt 0.8412 0.0100 0.0000
vt 0.8412 0.0245 0.0000
vt 0.7400 0.0245 0.0000
vt 0.7400 0.0100 0.0000
# 96 texture coords

g Box013
s 2
f 1/1/1 2/2/1 3/3/1 4/4/1 
s 8
f 1/5/2 4/6/2 5/7/2 6/8/2 
s 16
f 4/9/3 3/10/3 7/11/3 5/12/3 
s 32
f 3/13/4 2/14/4 8/15/4 7/16/4 
s 64
f 2/17/5 1/18/5 6/19/5 8/20/5 
s off
f 6/21/6 5/22/6 9/23/6 10/24/6 
f 5/22/6 7/25/6 11/26/6 9/23/6 
f 7/25/6 8/27/6 12/28/6 11/26/6 
f 8/27/6 6/21/6 10/24/6 12/28/6 
f 10/29/2 9/30/2 13/31/2 14/32/2 
f 9/33/3 11/34/3 15/35/3 13/36/3 
f 11/37/7 12/38/7 16/39/7 15/40/7 
f 12/41/8 10/42/8 14/43/8 16/44/8 
f 14/45/1 13/46/1 17/47/1 18/48/1 
f 13/46/1 15/49/1 19/50/1 17/47/1 
f 15/49/1 16/51/1 20/52/1 19/50/1 
f 21/53/1 22/54/1 23/55/1 24/56/1 
f 18/57/9 17/58/9 25/59/9 26/60/9 
f 17/61/10 19/62/10 27/63/10 25/64/10 
f 19/65/11 20/66/11 28/67/11 27/68/11 
f 20/69/12 18/70/12 26/71/12 28/72/12 
f 27/73/6 28/74/6 26/75/6 25/76/6 
f 16/51/1 14/45/1 29/77/1 30/78/1 
f 14/45/1 18/48/1 31/79/1 29/77/1 
f 18/48/1 20/52/1 32/80/1 31/79/1 
f 20/52/1 16/51/1 30/78/1 32/80/1 
f 30/81/3 29/82/3 22/83/3 21/84/3 
f 29/85/2 31/86/2 23/87/2 22/88/2 
f 31/89/5 32/90/5 24/91/5 23/92/5 
f 32/93/4 30/94/4 21/95/4 24/96/4 
# 30 polygons

