# 3ds Max Wavefront OBJ Exporter v0.97b - (c)2007 guruware
# File Created: 27.01.2019 00:31:01

#
# object Box018
#

v  -0.2404 0.0000 0.0000
v  -0.0000 0.0000 -0.2404
v  0.2404 0.0000 -0.0000
v  0.0000 0.0000 0.2404
v  -0.1980 0.0500 0.0000
v  0.0000 0.0500 0.1980
v  0.1980 0.0500 -0.0000
v  -0.0000 0.0500 -0.1980
v  0.0000 0.0500 0.2404
v  -0.2404 0.0500 0.0000
v  0.2404 0.0500 -0.0000
v  -0.0000 0.0500 -0.2404
v  -0.3904 0.1000 0.0000
v  0.0000 0.1000 0.3904
v  0.0000 0.1000 0.1980
v  -0.1980 0.1000 0.0000
v  0.3904 0.1000 -0.0000
v  0.1980 0.1000 -0.0000
v  -0.0000 0.1000 -0.3904
v  -0.0000 0.1000 -0.1980
v  -0.3904 0.0500 0.0000
v  0.0000 0.0500 0.3904
v  0.3904 0.0500 -0.0000
v  -0.0000 0.0500 -0.3904
# 24 vertices

vn 0.0000 -1.0000 -0.0000
vn 0.0000 1.0000 -0.0000
vn -0.7071 0.0000 0.7071
vn 0.7071 0.0000 0.7071
vn 0.7071 0.0000 -0.7071
vn -0.7071 0.0000 -0.7071
# 6 vertex normals

vt 1.0000 0.0000 0.0000
vt 1.0000 1.0000 0.0000
vt 0.0000 1.0000 0.0000
vt 0.0000 0.0000 0.0000
# 4 texture coords

g Box018
s 2
f 1/1/1 2/2/1 3/3/1 4/4/1 
s 4
f 5/4/2 6/1/2 7/2/2 8/3/2 
s 8
f 1/4/3 4/1/3 9/2/3 10/3/3 
s 16
f 4/4/4 3/1/4 11/2/4 9/3/4 
s 32
f 3/4/5 2/1/5 12/2/5 11/3/5 
s 64
f 2/4/6 1/1/6 10/2/6 12/3/6 
s off
f 13/4/2 14/1/2 15/1/2 16/4/2 
f 14/1/2 17/2/2 18/2/2 15/1/2 
f 17/2/2 19/3/2 20/3/2 18/2/2 
f 19/3/2 13/4/2 16/4/2 20/3/2 
f 21/4/3 22/1/3 14/1/3 13/4/3 
f 22/1/4 23/2/4 17/2/4 14/1/4 
f 23/2/5 24/3/5 19/3/5 17/2/5 
f 24/3/6 21/4/6 13/4/6 19/3/6 
f 6/1/5 5/4/5 16/4/5 15/1/5 
f 5/4/4 8/3/4 20/3/4 16/4/4 
f 8/3/3 7/2/3 18/2/3 20/3/3 
f 7/2/6 6/1/6 15/1/6 18/2/6 
f 10/4/1 9/1/1 22/1/1 21/4/1 
f 9/1/1 11/2/1 23/2/1 22/1/1 
f 11/2/1 12/3/1 24/3/1 23/2/1 
f 12/3/1 10/4/1 21/4/1 24/3/1 
# 22 polygons

