# 3ds Max Wavefront OBJ Exporter v0.97b - (c)2007 guruware
# File Created: 26.01.2019 19:18:38

#
# object Trophy
#

v  -0.0500 0.0000 0.0500
v  -0.0500 0.0000 -0.0500
v  0.0500 0.0000 -0.0500
v  0.0500 0.0000 0.0500
v  0.0500 0.0400 0.0500
v  -0.0500 0.0400 0.0500
v  0.0500 0.0400 -0.0500
v  -0.0500 0.0400 -0.0500
v  0.0200 0.0400 0.0200
v  -0.0200 0.0400 0.0200
v  0.0200 0.0400 -0.0200
v  -0.0200 0.0400 -0.0200
v  0.0200 0.1400 0.0200
v  -0.0200 0.1400 0.0200
v  0.0200 0.1400 -0.0200
v  -0.0200 0.1400 -0.0200
v  0.0534 0.1400 0.0534
v  -0.0534 0.1400 0.0534
v  0.0534 0.1400 -0.0534
v  -0.0534 0.1400 -0.0534
v  0.0534 0.2209 0.0534
v  -0.0534 0.2209 0.0534
v  0.1184 0.1650 -0.0174
v  0.1184 0.1959 -0.0174
v  0.1184 0.1959 0.0174
v  0.1184 0.1650 0.0174
v  -0.0534 0.2209 -0.0534
v  0.0534 0.2209 -0.0534
v  -0.1184 0.1650 0.0174
v  -0.1184 0.1959 0.0174
v  -0.1184 0.1959 -0.0174
v  -0.1184 0.1650 -0.0174
v  -0.0534 0.3017 0.0534
v  0.0534 0.3017 0.0534
v  0.0370 0.3017 0.0370
v  -0.0370 0.3017 0.0370
v  0.0534 0.3017 -0.0534
v  0.0370 0.3017 -0.0370
v  -0.0534 0.3017 -0.0534
v  -0.0370 0.3017 -0.0370
v  0.0370 0.1638 0.0370
v  -0.0370 0.1638 0.0370
v  0.0370 0.1638 -0.0370
v  -0.0370 0.1638 -0.0370
v  0.1184 0.2767 -0.0174
v  0.1184 0.2767 0.0174
v  0.1184 0.2459 0.0174
v  0.1184 0.2459 -0.0174
v  -0.1184 0.2767 0.0174
v  -0.1184 0.2767 -0.0174
v  -0.1184 0.2459 -0.0174
v  -0.1184 0.2459 0.0174
v  0.0534 0.1650 -0.0174
v  0.0534 0.1650 0.0174
v  0.0534 0.1959 -0.0174
v  0.0534 0.1959 0.0174
v  -0.0534 0.1650 0.0174
v  -0.0534 0.1650 -0.0174
v  -0.0534 0.1959 0.0174
v  -0.0534 0.1959 -0.0174
v  0.0534 0.2767 -0.0174
v  0.0534 0.2459 -0.0174
v  0.0534 0.2767 0.0174
v  0.0534 0.2459 0.0174
v  -0.0534 0.2767 0.0174
v  -0.0534 0.2459 0.0174
v  -0.0534 0.2767 -0.0174
v  -0.0534 0.2459 -0.0174
v  0.0884 0.1650 -0.0174
v  0.0884 0.1650 0.0174
v  0.0884 0.1959 -0.0174
v  0.0884 0.1959 0.0174
v  -0.0884 0.1650 0.0174
v  -0.0884 0.1650 -0.0174
v  -0.0884 0.1959 0.0174
v  -0.0884 0.1959 -0.0174
v  0.0884 0.2767 -0.0174
v  0.0884 0.2459 -0.0174
v  0.0884 0.2767 0.0174
v  0.0884 0.2459 0.0174
v  -0.0884 0.2767 0.0174
v  -0.0884 0.2459 0.0174
v  -0.0884 0.2767 -0.0174
v  -0.0884 0.2459 -0.0174
# 84 vertices

vn 0.0000 -1.0000 -0.0000
vn 0.0000 0.0000 1.0000
vn 1.0000 0.0000 -0.0000
vn 0.0000 0.0000 -1.0000
vn -1.0000 0.0000 -0.0000
vn 0.0000 1.0000 -0.0000
vn 0.0000 -1.0000 0.0000
vn -0.0000 -1.0000 -0.0000
vn 0.0000 1.0000 0.0000
vn -0.0000 1.0000 -0.0000
# 10 vertex normals

vt 0.2891 0.6976 0.0000
vt 0.2891 0.5437 0.0000
vt 0.4430 0.5437 0.0000
vt 0.4430 0.6976 0.0000
vt 0.8066 0.6053 0.0000
vt 0.6528 0.6053 0.0000
vt 0.6528 0.5437 0.0000
vt 0.8066 0.5437 0.0000
vt 0.6044 0.7357 0.0000
vt 0.4506 0.7357 0.0000
vt 0.4506 0.6741 0.0000
vt 0.6044 0.6741 0.0000
vt 0.6044 0.8200 0.0000
vt 0.4506 0.8200 0.0000
vt 0.4506 0.7585 0.0000
vt 0.6044 0.7585 0.0000
vt 0.7810 0.7357 0.0000
vt 0.6272 0.7357 0.0000
vt 0.6272 0.6741 0.0000
vt 0.7810 0.6741 0.0000
vt 0.0100 0.7385 0.0000
vt 0.1638 0.7385 0.0000
vt 0.1177 0.7847 0.0000
vt 0.0561 0.7847 0.0000
vt 0.1638 0.8923 0.0000
vt 0.1177 0.8462 0.0000
vt 0.0100 0.8923 0.0000
vt 0.0561 0.8462 0.0000
vt 0.6272 0.9120 0.0000
vt 0.6272 0.8504 0.0000
vt 0.7810 0.8504 0.0000
vt 0.7810 0.9120 0.0000
vt 0.8114 0.8200 0.0000
vt 0.8114 0.7585 0.0000
vt 0.9653 0.7585 0.0000
vt 0.9653 0.8200 0.0000
vt 0.6272 0.8200 0.0000
vt 0.6272 0.7585 0.0000
vt 0.7810 0.7585 0.0000
vt 0.7810 0.8200 0.0000
vt 0.8294 0.6053 0.0000
vt 0.8294 0.5437 0.0000
vt 0.9833 0.5437 0.0000
vt 0.9833 0.6053 0.0000
vt 0.3406 0.3177 0.0000
vt 0.4021 0.3177 0.0000
vt 0.4535 0.3692 0.0000
vt 0.2891 0.3692 0.0000
vt 0.4021 0.2562 0.0000
vt 0.4535 0.2048 0.0000
vt 0.3406 0.2562 0.0000
vt 0.2891 0.2048 0.0000
vt 0.0100 0.0100 0.0000
vt 0.1344 0.0100 0.0000
vt 0.1344 0.1744 0.0000
vt 0.0100 0.1744 0.0000
vt 0.8114 0.8504 0.0000
vt 0.8589 0.8504 0.0000
vt 0.8589 0.9040 0.0000
vt 0.8114 0.9040 0.0000
vt 0.0100 0.3996 0.0000
vt 0.1344 0.3996 0.0000
vt 0.1344 0.5639 0.0000
vt 0.0100 0.5639 0.0000
vt 0.8038 0.6741 0.0000
vt 0.8513 0.6741 0.0000
vt 0.8513 0.7277 0.0000
vt 0.8038 0.7277 0.0000
vt 0.5683 0.0100 0.0000
vt 0.7327 0.0100 0.0000
vt 0.7074 0.0353 0.0000
vt 0.5936 0.0353 0.0000
vt 0.7327 0.1744 0.0000
vt 0.7074 0.1491 0.0000
vt 0.5683 0.1744 0.0000
vt 0.5936 0.1491 0.0000
vt 0.5013 0.3996 0.0000
vt 0.5013 0.5133 0.0000
vt 0.2891 0.5133 0.0000
vt 0.2891 0.3996 0.0000
vt 0.6732 0.2048 0.0000
vt 0.6732 0.3185 0.0000
vt 0.4611 0.3185 0.0000
vt 0.4611 0.2048 0.0000
vt 0.9524 0.0100 0.0000
vt 0.9524 0.1237 0.0000
vt 0.7403 0.1237 0.0000
vt 0.7403 0.0100 0.0000
vt 0.2221 0.5944 0.0000
vt 0.2221 0.7081 0.0000
vt 0.0100 0.7081 0.0000
vt 0.0100 0.5944 0.0000
vt 0.4029 0.8189 0.0000
vt 0.2891 0.8189 0.0000
vt 0.2891 0.7052 0.0000
vt 0.4029 0.7052 0.0000
vt 0.2587 0.0100 0.0000
vt 0.2587 0.1744 0.0000
vt 0.9833 0.8504 0.0000
vt 0.9833 0.9040 0.0000
vt 0.9358 0.9040 0.0000
vt 0.9358 0.8504 0.0000
vt 0.2587 0.3996 0.0000
vt 0.2587 0.5639 0.0000
vt 0.9757 0.6741 0.0000
vt 0.9757 0.7277 0.0000
vt 0.9282 0.7277 0.0000
vt 0.9282 0.6741 0.0000
vt 0.0100 0.3692 0.0000
vt 0.0100 0.2048 0.0000
vt 0.0485 0.2602 0.0000
vt 0.0485 0.3137 0.0000
vt 0.1344 0.2048 0.0000
vt 0.0959 0.2602 0.0000
vt 0.1344 0.3692 0.0000
vt 0.0959 0.3137 0.0000
vt 0.2891 0.1744 0.0000
vt 0.2891 0.0100 0.0000
vt 0.3276 0.0654 0.0000
vt 0.3276 0.1189 0.0000
vt 0.4135 0.0100 0.0000
vt 0.3751 0.0654 0.0000
vt 0.4135 0.1744 0.0000
vt 0.3751 0.1189 0.0000
vt 0.2587 0.2048 0.0000
vt 0.2203 0.2602 0.0000
vt 0.1728 0.2602 0.0000
vt 0.2587 0.3692 0.0000
vt 0.2203 0.3137 0.0000
vt 0.1728 0.3137 0.0000
vt 0.5379 0.0100 0.0000
vt 0.4994 0.0654 0.0000
vt 0.4520 0.0654 0.0000
vt 0.5379 0.1744 0.0000
vt 0.4994 0.1189 0.0000
vt 0.4520 0.1189 0.0000
vt 0.3891 0.8265 0.0000
vt 0.3891 0.8800 0.0000
vt 0.3353 0.8800 0.0000
vt 0.3353 0.8265 0.0000
vt 0.7339 0.3996 0.0000
vt 0.7814 0.3996 0.0000
vt 0.7814 0.4534 0.0000
vt 0.7339 0.4534 0.0000
vt 0.9597 0.2048 0.0000
vt 0.9597 0.2583 0.0000
vt 0.9059 0.2583 0.0000
vt 0.9059 0.2048 0.0000
vt 0.5791 0.4996 0.0000
vt 0.5317 0.4996 0.0000
vt 0.5317 0.4457 0.0000
vt 0.5791 0.4457 0.0000
vt 0.8114 0.9879 0.0000
vt 0.8114 0.9344 0.0000
vt 0.8653 0.9344 0.0000
vt 0.8653 0.9879 0.0000
vt 0.4506 0.5437 0.0000
vt 0.4980 0.5437 0.0000
vt 0.4980 0.5976 0.0000
vt 0.4506 0.5976 0.0000
vt 0.2891 0.9564 0.0000
vt 0.2891 0.9028 0.0000
vt 0.3430 0.9028 0.0000
vt 0.3430 0.9564 0.0000
vt 0.7511 0.3048 0.0000
vt 0.7037 0.3048 0.0000
vt 0.7037 0.2509 0.0000
vt 0.7511 0.2509 0.0000
vt 0.8583 0.3996 0.0000
vt 0.9057 0.3996 0.0000
vt 0.9057 0.4534 0.0000
vt 0.8583 0.4534 0.0000
vt 0.1100 0.8999 0.0000
vt 0.1100 0.9535 0.0000
vt 0.0561 0.9535 0.0000
vt 0.0561 0.8999 0.0000
vt 0.7035 0.4996 0.0000
vt 0.6561 0.4996 0.0000
vt 0.6561 0.4457 0.0000
vt 0.7035 0.4457 0.0000
vt 0.5044 0.9192 0.0000
vt 0.5044 0.9727 0.0000
vt 0.4506 0.9727 0.0000
vt 0.4506 0.9192 0.0000
vt 0.5749 0.5437 0.0000
vt 0.6224 0.5437 0.0000
vt 0.6224 0.5976 0.0000
vt 0.5749 0.5976 0.0000
vt 0.4506 0.8963 0.0000
vt 0.4506 0.8428 0.0000
vt 0.5044 0.8428 0.0000
vt 0.5044 0.8963 0.0000
vt 0.8755 0.3048 0.0000
vt 0.8280 0.3048 0.0000
vt 0.8280 0.2509 0.0000
vt 0.8755 0.2509 0.0000
vt 0.9362 0.4531 0.0000
vt 0.9362 0.3996 0.0000
vt 0.9900 0.3996 0.0000
vt 0.9900 0.4531 0.0000
vt 0.2891 0.8800 0.0000
vt 0.2891 0.8265 0.0000
vt 0.7814 0.4996 0.0000
vt 0.7339 0.4996 0.0000
vt 0.5317 0.3996 0.0000
vt 0.5791 0.3996 0.0000
vt 0.9114 0.9344 0.0000
vt 0.9114 0.9879 0.0000
vt 0.4980 0.6437 0.0000
vt 0.4506 0.6437 0.0000
vt 0.7037 0.2048 0.0000
vt 0.7511 0.2048 0.0000
vt 0.9057 0.4996 0.0000
vt 0.8583 0.4996 0.0000
vt 0.0100 0.9535 0.0000
vt 0.0100 0.8999 0.0000
vt 0.6561 0.3996 0.0000
vt 0.7035 0.3996 0.0000
vt 0.6224 0.6437 0.0000
vt 0.5749 0.6437 0.0000
vt 0.5506 0.8428 0.0000
vt 0.5506 0.8963 0.0000
vt 0.8280 0.2048 0.0000
vt 0.8755 0.2048 0.0000
vt 0.6813 0.0461 0.0000
vt 0.6813 0.0996 0.0000
vt 0.6044 0.0996 0.0000
vt 0.6044 0.0461 0.0000
vt 0.1714 0.7920 0.0000
vt 0.1714 0.7385 0.0000
vt 0.2483 0.7385 0.0000
vt 0.2483 0.7920 0.0000
# 232 texture coords

g Trophy
s 2
f 1/1/1 2/2/1 3/3/1 4/4/1 
s 8
f 1/5/2 4/6/2 5/7/2 6/8/2 
s 16
f 4/9/3 3/10/3 7/11/3 5/12/3 
s 32
f 3/13/4 2/14/4 8/15/4 7/16/4 
s 64
f 2/17/5 1/18/5 6/19/5 8/20/5 
s off
f 6/21/6 5/22/6 9/23/6 10/24/6 
f 5/22/6 7/25/6 11/26/6 9/23/6 
f 7/25/6 8/27/6 12/28/6 11/26/6 
f 8/27/6 6/21/6 10/24/6 12/28/6 
f 10/29/2 9/30/2 13/31/2 14/32/2 
f 9/33/3 11/34/3 15/35/3 13/36/3 
f 11/37/4 12/38/4 16/39/4 15/40/4 
f 12/41/5 10/42/5 14/43/5 16/44/5 
f 14/45/7 13/46/7 17/47/7 18/48/7 
f 13/46/1 15/49/1 19/50/1 17/47/1 
f 15/49/1 16/51/1 20/52/1 19/50/1 
f 16/51/8 14/45/8 18/48/8 20/52/8 
f 17/53/2 21/54/2 22/55/2 18/56/2 
f 23/57/3 24/58/3 25/59/3 26/60/3 
f 20/61/4 27/62/4 28/63/4 19/64/4 
f 29/65/5 30/66/5 31/67/5 32/68/5 
f 33/69/9 34/70/9 35/71/9 36/72/9 
f 34/70/6 37/73/6 38/74/6 35/71/6 
f 37/73/6 39/75/6 40/76/6 38/74/6 
f 39/75/10 33/69/10 36/72/10 40/76/10 
f 36/77/4 35/78/4 41/79/4 42/80/4 
f 35/81/5 38/82/5 43/83/5 41/84/5 
f 38/85/2 40/86/2 44/87/2 43/88/2 
f 40/89/3 36/90/3 42/91/3 44/92/3 
f 43/93/6 44/94/6 42/95/6 41/96/6 
f 34/97/2 33/98/2 22/55/2 21/54/2 
f 45/99/3 46/100/3 47/101/3 48/102/3 
f 39/103/4 37/104/4 28/63/4 27/62/4 
f 49/105/5 50/106/5 51/107/5 52/108/5 
f 17/109/3 19/110/3 53/111/3 54/112/3 
f 19/110/3 28/113/3 55/114/3 53/111/3 
f 28/113/3 21/115/3 56/116/3 55/114/3 
f 21/115/3 17/109/3 54/112/3 56/116/3 
f 20/117/5 18/118/5 57/119/5 58/120/5 
f 18/118/5 22/121/5 59/122/5 57/119/5 
f 22/121/5 27/123/5 60/124/5 59/122/5 
f 27/123/5 20/117/5 58/120/5 60/124/5 
f 28/113/3 37/125/3 61/126/3 62/127/3 
f 37/125/3 34/128/3 63/129/3 61/126/3 
f 34/128/3 21/115/3 64/130/3 63/129/3 
f 21/115/3 28/113/3 62/127/3 64/130/3 
f 22/121/5 33/131/5 65/132/5 66/133/5 
f 33/131/5 39/134/5 67/135/5 65/132/5 
f 39/134/5 27/123/5 68/136/5 67/135/5 
f 27/123/5 22/121/5 66/133/5 68/136/5 
f 54/137/1 53/138/1 69/139/1 70/140/1 
f 53/141/4 55/142/4 71/143/4 69/144/4 
f 55/145/6 56/146/6 72/147/6 71/148/6 
f 56/149/2 54/150/2 70/151/2 72/152/2 
f 58/153/1 57/154/1 73/155/1 74/156/1 
f 57/157/2 59/158/2 75/159/2 73/160/2 
f 59/161/6 60/162/6 76/163/6 75/164/6 
f 60/165/4 58/166/4 74/167/4 76/168/4 
f 62/169/4 61/170/4 77/171/4 78/172/4 
f 61/173/6 63/174/6 79/175/6 77/176/6 
f 63/177/2 64/178/2 80/179/2 79/180/2 
f 64/181/1 62/182/1 78/183/1 80/184/1 
f 66/185/2 65/186/2 81/187/2 82/188/2 
f 65/189/6 67/190/6 83/191/6 81/192/6 
f 67/193/4 68/194/4 84/195/4 83/196/4 
f 68/197/1 66/198/1 82/199/1 84/200/1 
f 70/140/1 69/139/1 23/201/1 26/202/1 
f 69/144/4 71/143/4 24/203/4 23/204/4 
f 72/152/2 70/151/2 26/205/2 25/206/2 
f 74/156/1 73/155/1 29/207/1 32/208/1 
f 73/160/2 75/159/2 30/209/2 29/210/2 
f 76/168/4 74/167/4 32/211/4 31/212/4 
f 78/172/4 77/171/4 45/213/4 48/214/4 
f 77/176/6 79/175/6 46/215/6 45/216/6 
f 79/180/2 80/179/2 47/217/2 46/218/2 
f 82/188/2 81/187/2 49/219/2 52/220/2 
f 81/192/6 83/191/6 50/221/6 49/222/6 
f 83/196/4 84/195/4 51/223/4 50/224/4 
s 1
f 76/168/4 31/212/4 51/223/4 84/195/4 
s 2
f 31/67/5 30/66/5 52/108/5 51/107/5 
s 1
f 30/209/2 75/159/2 82/188/2 52/220/2 
s 2
f 75/225/3 76/226/3 84/227/3 82/228/3 
s 1
f 72/152/2 25/206/2 47/217/2 80/179/2 
s 2
f 25/59/3 24/58/3 48/102/3 47/101/3 
s 1
f 24/203/4 71/143/4 78/172/4 48/214/4 
s 2
f 71/229/5 72/230/5 80/231/5 78/232/5 
# 86 polygons

