# 3ds Max Wavefront OBJ Exporter v0.97b - (c)2007 guruware
# File Created: 26.01.2019 01:56:56

mtllib TV_Table.mtl

#
# object Box003
#

v  -0.3258 0.1500 -0.3353
v  0.2054 0.1500 -0.3353
v  0.2054 0.1500 0.3353
v  -0.3258 0.1500 0.3353
v  0.2054 0.5880 -0.3353
v  -0.3258 0.5880 -0.3353
v  -0.3258 0.5880 0.3353
v  0.2054 0.5880 0.3353
v  -0.3258 0.1500 1.0060
v  0.2054 0.1500 1.0060
v  0.2054 0.5880 1.0060
v  -0.3258 0.5880 1.0060
v  -0.2687 0.2100 -0.3027
v  -0.2687 0.5280 -0.3027
v  -0.2687 0.5280 0.3001
v  -0.2687 0.2100 0.3001
v  0.2054 0.1500 -1.0060
v  -0.3258 0.1500 -1.0060
v  -0.3258 0.5880 -1.0060
v  0.2054 0.5880 -1.0060
v  -0.2687 0.2100 -0.9460
v  -0.2687 0.5280 -0.9460
v  -0.2687 0.5280 -0.3679
v  -0.2687 0.2100 -0.3679
v  -0.2687 0.5280 0.9460
v  -0.2687 0.2100 0.9460
v  -0.2687 0.2100 0.3698
v  -0.2687 0.5280 0.3698
v  0.2054 0.2100 -0.3027
v  0.2054 0.2100 0.3001
v  0.2054 0.5280 -0.3027
v  0.2054 0.5280 0.3001
v  0.2054 0.2100 -0.9460
v  0.2054 0.2100 -0.3679
v  0.2054 0.5280 -0.9460
v  0.2054 0.5280 -0.3679
v  0.2054 0.5280 0.9460
v  0.2054 0.5280 0.3698
v  0.2054 0.2100 0.9460
v  0.2054 0.2100 0.3698
v  0.1431 0.0000 -0.9439
v  0.1431 0.0000 -0.9939
v  0.1931 0.0000 -0.9939
v  0.1931 0.0000 -0.9439
v  0.1431 0.1500 -0.9439
v  0.1931 0.1500 -0.9439
v  0.1931 0.1500 -0.9939
v  0.1431 0.1500 -0.9939
v  0.1431 0.0000 0.9939
v  0.1431 0.0000 0.9439
v  0.1931 0.0000 0.9439
v  0.1931 0.0000 0.9939
v  0.1431 0.1500 0.9939
v  0.1931 0.1500 0.9939
v  0.1931 0.1500 0.9439
v  0.1431 0.1500 0.9439
v  -0.3126 0.0000 0.9939
v  -0.3126 0.0000 0.9439
v  -0.2626 0.0000 0.9439
v  -0.2626 0.0000 0.9939
v  -0.3126 0.1500 0.9939
v  -0.2626 0.1500 0.9939
v  -0.2626 0.1500 0.9439
v  -0.3126 0.1500 0.9439
v  -0.3126 0.0000 -0.9439
v  -0.3126 0.0000 -0.9939
v  -0.2626 0.0000 -0.9939
v  -0.2626 0.0000 -0.9439
v  -0.3126 0.1500 -0.9439
v  -0.2626 0.1500 -0.9439
v  -0.2626 0.1500 -0.9939
v  -0.3126 0.1500 -0.9939
# 72 vertices

vn 0.0000 -1.0000 -0.0000
vn 0.0000 1.0000 -0.0000
vn 0.0000 0.0000 1.0000
vn 1.0000 0.0000 -0.0000
vn 0.0000 0.0000 -1.0000
vn -1.0000 0.0000 -0.0000
vn 0.0000 1.0000 0.0000
vn -0.0000 0.0000 1.0000
vn 0.0000 -0.0000 -1.0000
# 9 vertex normals

vt 1.0000 0.6667 0.0000
vt 0.0000 0.6667 0.0000
vt 0.0000 0.3333 0.0000
vt 1.0000 0.3333 0.0000
vt 0.0000 0.0000 0.0000
vt 1.0000 0.0000 0.0000
vt 1.0000 1.0000 0.0000
vt 0.0000 1.0000 0.0000
vt 0.6667 0.0000 0.0000
vt 0.6667 1.0000 0.0000
vt 0.3333 1.0000 0.0000
vt 0.3333 0.0000 0.0000
# 12 texture coords

g Box003
usemtl wire_085028177
s 2
f 1/1/1 2/2/1 3/3/1 4/4/1 
s 4
f 5/1/2 6/2/2 7/3/2 8/4/2 
s 8
f 9/5/3 10/6/3 11/7/3 12/8/3 
s 16
f 13/9/4 14/10/4 15/11/4 16/12/4 
s 32
f 17/5/5 18/6/5 19/7/5 20/8/5 
s 64
f 4/9/6 7/10/6 6/11/6 1/12/6 
s 2
f 18/7/1 17/8/1 2/2/1 1/1/1 
f 10/5/1 9/6/1 4/4/1 3/3/1 
s 4
f 20/7/2 19/8/2 6/2/2 5/1/2 
f 12/5/2 11/6/2 8/4/2 7/3/2 
s 16
f 21/6/4 22/7/4 23/10/4 24/9/4 
f 25/8/4 26/5/4 27/12/4 28/11/4 
s 64
f 9/6/6 12/7/6 7/10/6 4/9/6 
f 19/8/6 18/5/6 1/12/6 6/11/6 
s off
f 3/12/4 2/9/4 29/9/4 30/12/4 
f 2/9/4 5/10/4 31/10/4 29/9/4 
f 5/10/4 8/11/4 32/11/4 31/10/4 
f 8/11/4 3/12/4 30/12/4 32/11/4 
f 2/9/4 17/6/4 33/6/4 34/9/4 
f 17/6/4 20/7/4 35/7/4 33/6/4 
f 20/7/4 5/10/4 36/10/4 35/7/4 
f 5/10/4 2/9/4 34/9/4 36/10/4 
f 8/11/4 11/8/4 37/8/4 38/11/4 
f 11/8/4 10/5/4 39/5/4 37/8/4 
f 10/5/4 3/12/4 40/12/4 39/5/4 
f 3/12/4 8/11/4 38/11/4 40/12/4 
f 30/12/7 29/9/7 13/9/7 16/12/7 
f 29/9/8 31/10/8 14/10/8 13/9/8 
f 31/10/1 32/11/1 15/11/1 14/10/1 
f 32/11/9 30/12/9 16/12/9 15/11/9 
f 34/9/2 33/6/2 21/6/2 24/9/2 
f 33/6/3 35/7/3 22/7/3 21/6/3 
f 35/7/1 36/10/1 23/10/1 22/7/1 
f 36/10/9 34/9/9 24/9/9 23/10/9 
f 38/11/1 37/8/1 25/8/1 28/11/1 
f 37/8/5 39/5/5 26/5/5 25/8/5 
f 39/5/2 40/12/2 27/12/2 26/5/2 
f 40/12/8 38/11/8 28/11/8 27/12/8 
s 2
f 41/6/1 42/7/1 43/8/1 44/5/1 
s 4
f 45/5/2 46/6/2 47/7/2 48/8/2 
s 8
f 41/5/3 44/6/3 46/7/3 45/8/3 
s 16
f 44/5/4 43/6/4 47/7/4 46/8/4 
s 32
f 43/5/5 42/6/5 48/7/5 47/8/5 
s 64
f 42/5/6 41/6/6 45/7/6 48/8/6 
s 2
f 49/6/1 50/7/1 51/8/1 52/5/1 
s 4
f 53/5/2 54/6/2 55/7/2 56/8/2 
s 8
f 49/5/3 52/6/3 54/7/3 53/8/3 
s 16
f 52/5/4 51/6/4 55/7/4 54/8/4 
s 32
f 51/5/5 50/6/5 56/7/5 55/8/5 
s 64
f 50/5/6 49/6/6 53/7/6 56/8/6 
s 2
f 57/6/1 58/7/1 59/8/1 60/5/1 
s 4
f 61/5/2 62/6/2 63/7/2 64/8/2 
s 8
f 57/5/3 60/6/3 62/7/3 61/8/3 
s 16
f 60/5/4 59/6/4 63/7/4 62/8/4 
s 32
f 59/5/5 58/6/5 64/7/5 63/8/5 
s 64
f 58/5/6 57/6/6 61/7/6 64/8/6 
s 2
f 65/6/1 66/7/1 67/8/1 68/5/1 
s 4
f 69/5/2 70/6/2 71/7/2 72/8/2 
s 8
f 65/5/3 68/6/3 70/7/3 69/8/3 
s 16
f 68/5/4 67/6/4 71/7/4 70/8/4 
s 32
f 67/5/5 66/6/5 72/7/5 71/8/5 
s 64
f 66/5/6 65/6/6 69/7/6 72/8/6 
# 62 polygons

