# 3ds Max Wavefront OBJ Exporter v0.97b - (c)2007 guruware
# File Created: 26.01.2019 04:17:00

#
# object Cylinder001
#

v  0.0716 0.0476 0.0000
v  0.0429 0.0000 -0.0000
v  -0.0000 0.0000 -0.0429
v  -0.0000 0.0476 -0.0716
v  -0.0429 0.0000 0.0000
v  -0.0716 0.0476 0.0000
v  0.0000 0.0000 0.0429
v  0.0000 0.0476 0.0716
v  -0.0000 0.1101 -0.0858
v  0.0858 0.1101 -0.0000
v  -0.0858 0.1101 0.0000
v  0.0000 0.1101 0.0858
v  -0.0000 0.1739 -0.0929
v  0.0929 0.1739 -0.0000
v  -0.0929 0.1739 0.0000
v  0.0000 0.1739 0.0929
v  -0.0000 0.2204 -0.0686
v  0.0686 0.2204 0.0000
v  -0.0686 0.2204 0.0000
v  0.0000 0.2204 0.0686
v  -0.0000 0.2602 -0.0706
v  0.0706 0.2602 0.0000
v  -0.0706 0.2602 0.0000
v  0.0000 0.2602 0.0706
v  -0.0000 0.3049 -0.0928
v  0.0928 0.3049 -0.0000
v  -0.0928 0.3049 0.0000
v  0.0000 0.3049 0.0928
v  -0.0000 0.0155 -0.0303
v  0.0303 0.0155 0.0000
v  0.0529 0.0546 0.0000
v  -0.0000 0.0546 -0.0529
v  -0.0303 0.0155 0.0000
v  -0.0529 0.0546 0.0000
v  -0.0000 0.0155 0.0303
v  -0.0000 0.0546 0.0529
v  -0.0000 0.1133 -0.0661
v  0.0661 0.1133 -0.0000
v  -0.0661 0.1133 0.0000
v  -0.0000 0.1133 0.0661
v  -0.0000 0.1706 -0.0732
v  0.0732 0.1706 -0.0000
v  -0.0732 0.1706 0.0000
v  0.0000 0.1706 0.0732
v  -0.0000 0.2155 -0.0492
v  0.0492 0.2155 0.0000
v  -0.0492 0.2155 0.0000
v  0.0000 0.2155 0.0492
v  -0.0000 0.2664 -0.0516
v  0.0516 0.2664 0.0000
v  -0.0516 0.2664 0.0000
v  0.0000 0.2664 0.0516
v  -0.0000 0.3049 -0.0753
v  0.0753 0.3049 -0.0000
v  -0.0753 0.3049 0.0000
v  0.0000 0.3049 0.0753
# 56 vertices

vn 0.6505 -0.3920 -0.6505
vn -0.6505 -0.3920 -0.6505
vn -0.6505 -0.3920 0.6505
vn 0.6505 -0.3920 0.6505
vn 0.0000 -1.0000 -0.0000
vn 0.6982 -0.1586 -0.6982
vn -0.6982 -0.1586 -0.6982
vn -0.6982 -0.1586 0.6982
vn 0.6982 -0.1586 0.6982
vn 0.7049 -0.0784 -0.7049
vn -0.7049 -0.0784 -0.7049
vn -0.7049 -0.0784 0.7049
vn 0.7049 -0.0784 0.7049
vn 0.6632 0.3469 -0.6632
vn -0.6632 0.3469 -0.6632
vn -0.6632 0.3469 0.6632
vn 0.6632 0.3469 0.6632
vn 0.7066 -0.0363 -0.7066
vn -0.7066 -0.0363 -0.7066
vn -0.7066 -0.0363 0.7066
vn 0.7066 -0.0363 0.7066
vn 0.6671 -0.3314 -0.6671
vn -0.6671 -0.3314 -0.6671
vn -0.6671 -0.3314 0.6671
vn 0.6671 -0.3314 0.6671
vn -0.6546 0.3783 0.6546
vn 0.6546 0.3783 0.6546
vn 0.6546 0.3783 -0.6546
vn -0.6546 0.3783 -0.6546
vn 0.0000 1.0000 -0.0000
vn -0.6984 0.1568 0.6984
vn 0.6984 0.1568 0.6984
vn 0.6984 0.1568 -0.6984
vn -0.6984 0.1568 -0.6984
vn -0.7044 0.0874 0.7044
vn 0.7044 0.0874 0.7044
vn 0.7044 0.0874 -0.7044
vn -0.7044 0.0874 -0.7044
vn -0.6615 -0.3534 0.6615
vn 0.6615 -0.3534 0.6615
vn 0.6615 -0.3534 -0.6615
vn -0.6615 -0.3534 -0.6615
vn -0.7067 0.0336 0.7067
vn 0.7067 0.0336 0.7067
vn 0.7067 0.0336 -0.7067
vn -0.7067 0.0336 -0.7067
vn -0.6481 0.3998 0.6481
vn 0.6481 0.3998 0.6481
vn 0.6481 0.3998 -0.6481
vn -0.6481 0.3998 -0.6481
# 50 vertex normals

vt 0.5427 0.1802 0.0000
vt 0.4648 0.1497 0.0000
vt 0.4648 0.0582 0.0000
vt 0.5427 0.0277 0.0000
vt 0.0829 0.3946 0.0000
vt 0.0050 0.3641 0.0000
vt 0.0050 0.2726 0.0000
vt 0.0829 0.2421 0.0000
vt 0.0829 0.6090 0.0000
vt 0.0050 0.5784 0.0000
vt 0.0050 0.4870 0.0000
vt 0.0829 0.4564 0.0000
vt 0.0829 0.1802 0.0000
vt 0.0050 0.1497 0.0000
vt 0.0050 0.0582 0.0000
vt 0.0829 0.0277 0.0000
vt 0.6159 0.7299 0.0000
vt 0.6072 0.8209 0.0000
vt 0.5161 0.8121 0.0000
vt 0.5249 0.7211 0.0000
vt 0.6353 0.0126 0.0000
vt 0.6353 0.1954 0.0000
vt 0.1755 0.2269 0.0000
vt 0.1755 0.4097 0.0000
vt 0.1755 0.4413 0.0000
vt 0.1755 0.6241 0.0000
vt 0.1755 0.0126 0.0000
vt 0.1755 0.1954 0.0000
vt 0.7267 0.0050 0.0000
vt 0.7267 0.2029 0.0000
vt 0.2669 0.2194 0.0000
vt 0.2669 0.4173 0.0000
vt 0.2669 0.4338 0.0000
vt 0.2669 0.6317 0.0000
vt 0.2669 0.0050 0.0000
vt 0.2669 0.2029 0.0000
vt 0.7810 0.0309 0.0000
vt 0.7810 0.1770 0.0000
vt 0.3212 0.2453 0.0000
vt 0.3212 0.3914 0.0000
vt 0.3212 0.4597 0.0000
vt 0.3212 0.6058 0.0000
vt 0.3212 0.0309 0.0000
vt 0.3212 0.1770 0.0000
vt 0.6742 0.9636 0.0000
vt 0.6742 0.8175 0.0000
vt 0.7302 0.8153 0.0000
vt 0.7302 0.9658 0.0000
vt 0.8467 0.9690 0.0000
vt 0.8467 0.8229 0.0000
vt 0.9027 0.8207 0.0000
vt 0.9027 0.9712 0.0000
vt 0.9270 0.9584 0.0000
vt 0.9270 0.8123 0.0000
vt 0.9830 0.8101 0.0000
vt 0.9830 0.9605 0.0000
vt 0.7636 0.9663 0.0000
vt 0.7636 0.8202 0.0000
vt 0.8196 0.8180 0.0000
vt 0.8196 0.9685 0.0000
vt 0.8370 0.1792 0.0000
vt 0.8370 0.0287 0.0000
vt 0.9081 0.0051 0.0000
vt 0.9081 0.2028 0.0000
vt 0.3772 0.3936 0.0000
vt 0.3772 0.2431 0.0000
vt 0.4483 0.2195 0.0000
vt 0.4483 0.4172 0.0000
vt 0.3772 0.6079 0.0000
vt 0.3772 0.4575 0.0000
vt 0.4483 0.4338 0.0000
vt 0.4483 0.6316 0.0000
vt 0.3772 0.1792 0.0000
vt 0.3772 0.0287 0.0000
vt 0.4483 0.0051 0.0000
vt 0.4483 0.2028 0.0000
vt 0.4648 0.3319 0.0000
vt 0.4648 0.2674 0.0000
vt 0.5284 0.2433 0.0000
vt 0.5284 0.3560 0.0000
vt 0.0050 0.9376 0.0000
vt 0.0050 0.8731 0.0000
vt 0.0686 0.8491 0.0000
vt 0.0686 0.9617 0.0000
vt 0.4648 0.5463 0.0000
vt 0.4648 0.4818 0.0000
vt 0.5284 0.4577 0.0000
vt 0.5284 0.5703 0.0000
vt 0.0050 0.7606 0.0000
vt 0.0050 0.6961 0.0000
vt 0.0686 0.6721 0.0000
vt 0.0686 0.7847 0.0000
vt 0.9308 0.0050 0.0000
vt 0.9950 0.0112 0.0000
vt 0.9888 0.0754 0.0000
vt 0.9246 0.0692 0.0000
vt 0.6157 0.3700 0.0000
vt 0.6157 0.2293 0.0000
vt 0.1559 0.9758 0.0000
vt 0.1559 0.8350 0.0000
vt 0.6157 0.5844 0.0000
vt 0.6157 0.4436 0.0000
vt 0.1559 0.7988 0.0000
vt 0.1559 0.6580 0.0000
vt 0.6984 0.3776 0.0000
vt 0.6984 0.2217 0.0000
vt 0.2386 0.9833 0.0000
vt 0.2386 0.8274 0.0000
vt 0.6984 0.5920 0.0000
vt 0.6984 0.4361 0.0000
vt 0.2386 0.8063 0.0000
vt 0.2386 0.6504 0.0000
vt 0.7514 0.3520 0.0000
vt 0.7514 0.2472 0.0000
vt 0.2916 0.9578 0.0000
vt 0.2916 0.8530 0.0000
vt 0.7514 0.5664 0.0000
vt 0.7514 0.4616 0.0000
vt 0.2916 0.7808 0.0000
vt 0.2916 0.6760 0.0000
vt 0.8232 0.3546 0.0000
vt 0.8232 0.2447 0.0000
vt 0.3634 0.9603 0.0000
vt 0.3634 0.8504 0.0000
vt 0.8232 0.5690 0.0000
vt 0.8232 0.4591 0.0000
vt 0.3634 0.7834 0.0000
vt 0.3634 0.6734 0.0000
vt 0.8865 0.3799 0.0000
vt 0.8865 0.2194 0.0000
vt 0.4267 0.9856 0.0000
vt 0.4267 0.8251 0.0000
vt 0.8865 0.5943 0.0000
vt 0.8865 0.4338 0.0000
vt 0.4267 0.8087 0.0000
vt 0.4267 0.6481 0.0000
vt 0.6226 0.8307 0.0000
vt 0.6258 0.6702 0.0000
vt 0.6447 0.6520 0.0000
vt 0.6409 0.8497 0.0000
vt 0.4621 0.8276 0.0000
vt 0.4432 0.8458 0.0000
vt 0.4653 0.6671 0.0000
vt 0.4470 0.6481 0.0000
# 144 texture coords

g Cylinder001
s off
f 1/1/1 2/2/1 3/3/1 4/4/1 
f 4/5/2 3/6/2 5/7/2 6/8/2 
f 6/9/3 5/10/3 7/11/3 8/12/3 
f 8/13/4 7/14/4 2/15/4 1/16/4 
f 2/17/5 7/18/5 5/19/5 3/20/5 
f 1/1/6 4/4/6 9/21/6 10/22/6 
f 4/5/7 6/8/7 11/23/7 9/24/7 
f 6/9/8 8/12/8 12/25/8 11/26/8 
f 8/13/9 1/16/9 10/27/9 12/28/9 
f 10/22/10 9/21/10 13/29/10 14/30/10 
f 9/24/11 11/23/11 15/31/11 13/32/11 
f 11/26/12 12/25/12 16/33/12 15/34/12 
f 12/28/13 10/27/13 14/35/13 16/36/13 
f 14/30/14 13/29/14 17/37/14 18/38/14 
f 13/32/15 15/31/15 19/39/15 17/40/15 
f 15/34/16 16/33/16 20/41/16 19/42/16 
f 16/36/17 14/35/17 18/43/17 20/44/17 
f 18/45/18 17/46/18 21/47/18 22/48/18 
f 17/49/19 19/50/19 23/51/19 21/52/19 
f 19/53/20 20/54/20 24/55/20 23/56/20 
f 20/57/21 18/58/21 22/59/21 24/60/21 
f 22/61/22 21/62/22 25/63/22 26/64/22 
f 21/65/23 23/66/23 27/67/23 25/68/23 
f 23/69/24 24/70/24 28/71/24 27/72/24 
f 24/73/25 22/74/25 26/75/25 28/76/25 
f 29/77/26 30/78/26 31/79/26 32/80/26 
f 33/81/27 29/82/27 32/83/27 34/84/27 
f 35/85/28 33/86/28 34/87/28 36/88/28 
f 30/89/29 35/90/29 36/91/29 31/92/29 
f 33/93/30 35/94/30 30/95/30 29/96/30 
f 37/97/31 32/80/31 31/79/31 38/98/31 
f 39/99/32 34/84/32 32/83/32 37/100/32 
f 40/101/33 36/88/33 34/87/33 39/102/33 
f 38/103/34 31/92/34 36/91/34 40/104/34 
f 41/105/35 37/97/35 38/98/35 42/106/35 
f 43/107/36 39/99/36 37/100/36 41/108/36 
f 44/109/37 40/101/37 39/102/37 43/110/37 
f 42/111/38 38/103/38 40/104/38 44/112/38 
f 45/113/39 41/105/39 42/106/39 46/114/39 
f 47/115/40 43/107/40 41/108/40 45/116/40 
f 48/117/41 44/109/41 43/110/41 47/118/41 
f 46/119/42 42/111/42 44/112/42 48/120/42 
f 49/121/43 45/113/43 46/114/43 50/122/43 
f 51/123/44 47/115/44 45/116/44 49/124/44 
f 52/125/45 48/117/45 47/118/45 51/126/45 
f 50/127/46 46/119/46 48/120/46 52/128/46 
f 53/129/47 49/121/47 50/122/47 54/130/47 
f 55/131/48 51/123/48 49/124/48 53/132/48 
f 56/133/49 52/125/49 51/126/49 55/134/49 
f 54/135/50 50/127/50 52/128/50 56/136/50 
s 1
f 53/137/30 54/138/30 26/139/30 25/140/30 
s 2
f 55/141/30 53/137/30 25/140/30 27/142/30 
s 1
f 56/143/30 55/141/30 27/142/30 28/144/30 
s 2
f 54/138/30 56/143/30 28/144/30 26/139/30 
# 54 polygons

