# 3ds Max Wavefront OBJ Exporter v0.97b - (c)2007 guruware
# File Created: 26.01.2019 23:19:26

#
# object Box015
#

v  -0.0803 0.0000 -0.0000
v  0.0000 0.0000 -0.0803
v  0.0803 0.0000 -0.0000
v  0.0000 0.0000 0.0803
v  -0.0167 0.1448 -0.0000
v  0.0000 0.1448 0.0167
v  0.0167 0.1448 -0.0000
v  0.0000 0.1448 -0.0167
v  0.0000 0.0724 0.1185
v  -0.1185 0.0724 0.0000
v  0.1185 0.0724 -0.0000
v  -0.0000 0.0724 -0.1185
v  0.0000 0.1448 0.1021
v  -0.1021 0.1448 0.0000
v  0.1021 0.1448 -0.0000
v  -0.0000 0.1448 -0.1021
v  -0.0000 0.1841 0.0547
v  -0.0547 0.1841 -0.0000
v  0.0547 0.1841 0.0000
v  0.0000 0.1841 -0.0547
v  0.0000 0.2114 0.0459
v  -0.0459 0.2114 -0.0000
v  0.0459 0.2114 -0.0000
v  0.0000 0.2114 -0.0459
v  -0.0371 0.2780 -0.0000
v  0.0000 0.2780 0.0371
v  0.0000 0.2780 0.0167
v  -0.0167 0.2780 -0.0000
v  0.0371 0.2780 -0.0000
v  0.0167 0.2780 -0.0000
v  0.0000 0.2780 -0.0371
v  0.0000 0.2780 -0.0167
v  0.0000 0.1918 0.0167
v  -0.0167 0.1918 -0.0000
v  0.0167 0.1918 -0.0000
v  0.0000 0.1918 -0.0167
# 36 vertices

vn 0.0000 -1.0000 -0.0000
vn 0.0000 1.0000 -0.0000
vn -0.6621 -0.3510 0.6621
vn 0.6621 -0.3510 0.6621
vn 0.6621 -0.3510 -0.6621
vn -0.6621 -0.3510 -0.6621
vn -0.6980 0.1596 0.6980
vn 0.6980 0.1596 0.6980
vn 0.6980 0.1596 -0.6980
vn -0.6980 0.1596 -0.6980
vn -0.5376 0.6495 0.5376
vn 0.5376 0.6495 0.5376
vn 0.5376 0.6495 -0.5376
vn -0.5376 0.6495 -0.5376
vn -0.6893 0.2228 0.6893
vn 0.6893 0.2228 0.6893
vn 0.6893 0.2228 -0.6893
vn -0.6893 0.2228 -0.6893
vn 0.7071 0.0000 -0.7071
vn -0.7071 0.0000 -0.7071
vn -0.7071 0.0000 0.7071
vn 0.7071 0.0000 0.7071
vn -0.7040 0.0936 0.7040
vn 0.7040 0.0936 0.7040
vn 0.7040 0.0936 -0.7040
vn -0.7040 0.0936 -0.7040
# 26 vertex normals

vt 0.2156 0.7080 0.0000
vt 0.2156 0.9215 0.0000
vt 0.0020 0.9215 0.0000
vt 0.0020 0.7080 0.0000
vt 0.9196 0.0020 0.0000
vt 0.9639 0.0020 0.0000
vt 0.9639 0.0464 0.0000
vt 0.9196 0.0464 0.0000
vt 0.3615 0.6305 0.0000
vt 0.2201 0.6835 0.0000
vt 0.2201 0.3550 0.0000
vt 0.3615 0.4080 0.0000
vt 0.7455 0.2775 0.0000
vt 0.6041 0.3305 0.0000
vt 0.6041 0.0020 0.0000
vt 0.7455 0.0550 0.0000
vt 0.7455 0.6305 0.0000
vt 0.6041 0.6835 0.0000
vt 0.6041 0.3550 0.0000
vt 0.7455 0.4080 0.0000
vt 0.3615 0.2775 0.0000
vt 0.2201 0.3305 0.0000
vt 0.2201 0.0020 0.0000
vt 0.3615 0.0550 0.0000
vt 0.0787 0.6606 0.0000
vt 0.0787 0.3778 0.0000
vt 0.4627 0.3076 0.0000
vt 0.4627 0.0249 0.0000
vt 0.4627 0.6606 0.0000
vt 0.4627 0.3778 0.0000
vt 0.0787 0.3076 0.0000
vt 0.0787 0.0249 0.0000
vt 0.0020 0.5951 0.0000
vt 0.0020 0.4434 0.0000
vt 0.3860 0.2421 0.0000
vt 0.3860 0.0904 0.0000
vt 0.3860 0.5951 0.0000
vt 0.3860 0.4434 0.0000
vt 0.0020 0.2421 0.0000
vt 0.0020 0.0904 0.0000
vt 0.8382 0.6713 0.0000
vt 0.9618 0.6713 0.0000
vt 0.9737 0.7233 0.0000
vt 0.8263 0.7233 0.0000
vt 0.8444 0.7626 0.0000
vt 0.9681 0.7626 0.0000
vt 0.9800 0.8146 0.0000
vt 0.8325 0.8146 0.0000
vt 0.7819 0.5018 0.0000
vt 0.9056 0.5018 0.0000
vt 0.9174 0.5539 0.0000
vt 0.7700 0.5539 0.0000
vt 0.7819 0.5865 0.0000
vt 0.9056 0.5865 0.0000
vt 0.9174 0.6385 0.0000
vt 0.7700 0.6385 0.0000
vt 0.3387 0.8066 0.0000
vt 0.2400 0.8066 0.0000
vt 0.2672 0.7795 0.0000
vt 0.3115 0.7795 0.0000
vt 0.2400 0.7080 0.0000
vt 0.2672 0.7351 0.0000
vt 0.3387 0.7080 0.0000
vt 0.3115 0.7351 0.0000
vt 0.5356 0.7080 0.0000
vt 0.6972 0.7080 0.0000
vt 0.6972 0.7523 0.0000
vt 0.5356 0.7523 0.0000
vt 0.5356 0.8457 0.0000
vt 0.6972 0.8457 0.0000
vt 0.6972 0.8900 0.0000
vt 0.5356 0.8900 0.0000
vt 0.5356 0.7768 0.0000
vt 0.6972 0.7768 0.0000
vt 0.6972 0.8212 0.0000
vt 0.5356 0.8212 0.0000
vt 0.5356 0.9145 0.0000
vt 0.6972 0.9145 0.0000
vt 0.6972 0.9589 0.0000
vt 0.5356 0.9589 0.0000
vt 0.7720 0.2945 0.0000
vt 0.7720 0.1957 0.0000
vt 0.8971 0.1839 0.0000
vt 0.8971 0.3063 0.0000
vt 0.7679 0.1518 0.0000
vt 0.7679 0.0529 0.0000
vt 0.8930 0.0412 0.0000
vt 0.8930 0.1635 0.0000
vt 0.3860 0.8186 0.0000
vt 0.3860 0.7197 0.0000
vt 0.5111 0.7080 0.0000
vt 0.5111 0.8303 0.0000
vt 0.7700 0.4656 0.0000
vt 0.7700 0.3667 0.0000
vt 0.8951 0.3550 0.0000
vt 0.8951 0.4774 0.0000
vt 0.7853 0.7080 0.0000
vt 0.7853 0.7523 0.0000
vt 0.7853 0.8457 0.0000
vt 0.7853 0.8900 0.0000
vt 0.7853 0.7768 0.0000
vt 0.7853 0.8212 0.0000
vt 0.7853 0.9145 0.0000
vt 0.7853 0.9589 0.0000
# 104 texture coords

g Box015
s off
f 1/1/1 2/2/1 3/3/1 4/4/1 
f 5/5/2 6/6/2 7/7/2 8/8/2 
f 4/9/3 9/10/3 10/11/3 1/12/3 
f 3/13/4 11/14/4 9/15/4 4/16/4 
f 2/17/5 12/18/5 11/19/5 3/20/5 
f 1/21/6 10/22/6 12/23/6 2/24/6 
f 13/25/7 14/26/7 10/11/7 9/10/7 
f 15/27/8 13/28/8 9/15/8 11/14/8 
f 16/29/9 15/30/9 11/19/9 12/18/9 
f 14/31/10 16/32/10 12/23/10 10/22/10 
f 13/25/11 17/33/11 18/34/11 14/26/11 
f 15/27/12 19/35/12 17/36/12 13/28/12 
f 16/29/13 20/37/13 19/38/13 15/30/13 
f 14/31/14 18/39/14 20/40/14 16/32/14 
f 21/41/15 22/42/15 18/43/15 17/44/15 
f 23/45/16 21/46/16 17/47/16 19/48/16 
f 24/49/17 23/50/17 19/51/17 20/52/17 
f 22/53/18 24/54/18 20/55/18 18/56/18 
f 25/57/2 26/58/2 27/59/2 28/60/2 
f 26/58/2 29/61/2 30/62/2 27/59/2 
f 29/61/2 31/63/2 32/64/2 30/62/2 
f 31/63/2 25/57/2 28/60/2 32/64/2 
f 27/65/19 33/66/19 34/67/19 28/68/19 
f 30/69/20 35/70/20 33/71/20 27/72/20 
f 32/73/21 36/74/21 35/75/21 30/76/21 
f 28/77/22 34/78/22 36/79/22 32/80/22 
f 26/81/23 25/82/23 22/83/23 21/84/23 
f 29/85/24 26/86/24 21/87/24 23/88/24 
f 31/89/25 29/90/25 23/91/25 24/92/25 
f 25/93/26 31/94/26 24/95/26 22/96/26 
f 6/97/19 5/98/19 34/67/19 33/66/19 
f 7/99/20 6/100/20 33/71/20 35/70/20 
f 8/101/21 7/102/21 35/75/21 36/74/21 
f 5/103/22 8/104/22 36/79/22 34/78/22 
# 34 polygons

